<svg version="1.1" xmlns="http://www.w3.org/2000/svg" xmlns:xlink="http://www.w3.org/1999/xlink" width="991" height="789"><desc>title%20Virtual%20Defunding%20a%20channel%20V%20with%20Ledger%20Channels%20L%2C%20L'%0A%0Aparticipant%20%22Alice%22%20as%20A%0Aparticipant%20%22Irene%22%20as%20I%0Aparticipant%20%22Bob%22%20as%20B%0A%0Anote%20left%20of%20A%20%3A%20%3Cbackground%3A%23yellow%3EAlice%20proposes%20final%20V%0AA-%3EI%3A%200a%3A%20V.Final(A)%0AA-%3EB%3A%200b%3A%20V.Final(A)%0A%0Aparallel%0Anote%20left%20of%20A%20%3A%20%3Cbackground%3A%23yellow%3EIrene%20agrees%20to%20final%20V%0AI-%3EA%3A%201a%3A%20V.Final(I)%0AI-%3EB%3A%201b%3A%20V.Final(I)%0Aparallel%20off%0A%0Aparallel%20%0Anote%20right%20of%20B%20%3A%20%3Cbackground%3A%23yellow%3EBob%20agrees%20to%20final%20V%0AB-%3EA%3A%201c%3A%20V.Final(B)%0Aparallel%20off%0AB-%3EI%3A%201d%3A%20V.Final(B)%0A%0A%0Anote%20over%20A%2CB%3A%20End%20of%20Round%201%0A%0Aparallel%0Anote%20left%20of%20A%20%3A%20%3Cbackground%3A%23yellow%3EAlice%20proposes%20to%20defund%20V%20from%20L%20%0AA-%3EI%3A%202a%3A%20L.defund(A)%0Anote%20right%20of%20B%20%3A%20%3Cbackground%3A%23yellow%3EIrene%20proposes%20to%20defund%20V%20from%20L'%0AI-%3EB%3A%202b%3A%20L'.defund(I)%0Aparallel%20off%0A%0Aparallel%20%0Anote%20left%20of%20A%20%3A%20%3Cbackground%3A%23yellow%3EIrene%20accepts%20Alice's%20defund%20proposal%20for%20L%0AI-%3EA%3A%202c%3A%20L.defund(I)%0AB-%3EI%3A%202d%3A%20L'.defund(B)%0Anote%20right%20of%20B%20%3A%20%3Cbackground%3A%23yellow%3EBob%20accepts%20Irene's%20defund%20proposal%20with%20L'%0Aparallel%20off%0A%0Anote%20over%20A%2CB%3A%20End%20of%20Round%202%0A%0A</desc><defs/><g><g/><g/><g/><g/><g/><g/><g/><g/><g/><g/><g/><g/><g/><g/><g/><g/><g/><g/><g/><g/><g/><g/><g><rect fill="white" stroke="none" x="0" y="0" width="991" height="789"/></g><g><text fill="black" stroke="none" font-family="sans-serif" font-size="16.5pt" font-style="normal" font-weight="normal" text-decoration="normal" x="217.55933996352212" y="26.3876361" text-anchor="start" dominant-baseline="alphabetic" xml:space="preserve">Virtual Defunding a channel V with Ledger Channels L, L'</text></g><g/><g><path fill="none" stroke="black" paint-order="fill stroke markers" d=" M 343.462691791875 103.26361593799999 L 343.462691791875 789.3421545379997" stroke-miterlimit="10" stroke-width="1.4659797833333332" stroke-dasharray="13.532121076923076,5.863919133333333"/><path fill="none" stroke="black" paint-order="fill stroke markers" d=" M 491.43341680678384 103.26361593799999 L 491.43341680678384 789.3421545379997" stroke-miterlimit="10" stroke-width="1.4659797833333332" stroke-dasharray="13.532121076923076,5.863919133333333"/><path fill="none" stroke="black" paint-order="fill stroke markers" d=" M 642.2029852054818 103.26361593799999 L 642.2029852054818 789.3421545379997" stroke-miterlimit="10" stroke-width="1.4659797833333332" stroke-dasharray="13.532121076923076,5.863919133333333"/></g><g><path fill="none" stroke="none"/><g><path fill="white" stroke="black" paint-order="fill stroke markers" d=" M 308.48803125310934 55.94178853199999 L 378.4373523306406 55.94178853199999 L 378.4373523306406 103.26361593799999 L 308.48803125310934 103.26361593799999 L 308.48803125310934 55.94178853199999 Z" stroke-miterlimit="10" stroke-width="2.814681184" stroke-dasharray=""/></g><g><text fill="black" stroke="none" font-family="sans-serif" font-size="11pt" font-style="normal" font-weight="normal" text-decoration="normal" x="327.57508803210936" y="85.67185853800001" text-anchor="start" dominant-baseline="alphabetic" xml:space="preserve">Alice</text></g><path fill="none" stroke="none"/><g><path fill="white" stroke="black" paint-order="fill stroke markers" d=" M 455.63913804292054 55.94178853199999 L 527.2276955706471 55.94178853199999 L 527.2276955706471 103.26361593799999 L 455.63913804292054 103.26361593799999 L 455.63913804292054 55.94178853199999 Z" stroke-miterlimit="10" stroke-width="2.814681184" stroke-dasharray=""/></g><g><text fill="black" stroke="none" font-family="sans-serif" font-size="11pt" font-style="normal" font-weight="normal" text-decoration="normal" x="474.72619482192056" y="85.67185853800001" text-anchor="start" dominant-baseline="alphabetic" xml:space="preserve">Irene</text></g><path fill="none" stroke="none"/><g><path fill="white" stroke="black" paint-order="fill stroke markers" d=" M 610.0736997277513 55.94178853199999 L 674.3322706832123 55.94178853199999 L 674.3322706832123 103.26361593799999 L 610.0736997277513 103.26361593799999 L 610.0736997277513 55.94178853199999 Z" stroke-miterlimit="10" stroke-width="2.814681184" stroke-dasharray=""/></g><g><text fill="black" stroke="none" font-family="sans-serif" font-size="11pt" font-style="normal" font-weight="normal" text-decoration="normal" x="629.1607565067513" y="85.67185853800001" text-anchor="start" dominant-baseline="alphabetic" xml:space="preserve">Bob</text></g></g><g><path fill="white" stroke="black" paint-order="fill stroke markers" d=" M 343.462691791875 158.677651748 L 334.666813091875 158.677651748 M 144.4364579236328 138.447130738 L 318.83423143187497 138.447130738 L 334.666813091875 154.279712398 L 334.666813091875 178.90817275799998 L 144.4364579236328 178.90817275799998 L 144.4364579236328 138.447130738 M 318.83423143187497 138.447130738 L 318.83423143187497 154.279712398 L 334.666813091875 154.279712398" stroke-miterlimit="10" stroke-width="1.4659797833333332" stroke-dasharray=""/><g><g><rect fill="yellow" stroke="none" x="169.06491828363278" y="150.05769062200002" width="140.9734344482422" height="17.767674974"/><text fill="black" stroke="none" font-family="sans-serif" font-size="11pt" font-style="normal" font-weight="normal" text-decoration="normal" x="169.06491828363278" y="163.07559109800002" text-anchor="start" dominant-baseline="alphabetic" xml:space="preserve">Alice proposes final V</text></g><g><g><rect fill="white" stroke="none" x="370.67187003503255" y="205.29580885799996" width="93.55236852859375" height="22.86928462"/></g><text fill="black" stroke="none" font-family="sans-serif" font-size="11pt" font-style="normal" font-weight="normal" text-decoration="normal" x="373.31063364503257" y="221.12839051799997" text-anchor="start" dominant-baseline="alphabetic" xml:space="preserve">0a: V.Final(A)</text></g><g><path fill="none" stroke="black" paint-order="fill stroke markers" d=" M 343.462691791875 228.16509347799996 L 476.9495365474505 228.16509347799996" stroke-miterlimit="10" stroke-width="1.4659797833333332" stroke-dasharray=""/><g transform="translate(491.43341680678384,228.16509347799996) translate(-491.43341680678384,-228.16509347799996)"><path fill="black" stroke="none" paint-order="stroke fill markers" d=" M 476.7736189734505 220.83519456133328 L 491.43341680678384 228.16509347799996 L 476.7736189734505 235.49499239466664 Z"/></g></g><g><g><rect fill="white" stroke="none" x="446.0566542343815" y="254.55272957799994" width="93.55236852859375" height="22.86928462"/></g><text fill="black" stroke="none" font-family="sans-serif" font-size="11pt" font-style="normal" font-weight="normal" text-decoration="normal" x="448.6954178443815" y="270.38531123799993" text-anchor="start" dominant-baseline="alphabetic" xml:space="preserve">0b: V.Final(A)</text></g><g><path fill="none" stroke="black" paint-order="fill stroke markers" d=" M 343.462691791875 277.42201419799994 L 627.7191049461485 277.42201419799994" stroke-miterlimit="10" stroke-width="1.4659797833333332" stroke-dasharray=""/><g transform="translate(642.2029852054818,277.42201419799994) translate(-642.2029852054818,-277.42201419799994)"><path fill="black" stroke="none" paint-order="stroke fill markers" d=" M 627.5431873721485 270.0921152813333 L 642.2029852054818 277.42201419799994 L 627.5431873721485 284.7519131146666 Z"/></g></g><path fill="white" stroke="black" paint-order="fill stroke markers" d=" M 343.462691791875 324.0401713079999 L 334.666813091875 324.0401713079999 M 141.98118143437497 303.80965029799995 L 318.83423143187497 303.80965029799995 L 334.666813091875 319.64223195799997 L 334.666813091875 344.27069231799993 L 141.98118143437497 344.27069231799993 L 141.98118143437497 303.80965029799995 M 318.83423143187497 303.80965029799995 L 318.83423143187497 319.64223195799997 L 334.666813091875 319.64223195799997" stroke-miterlimit="10" stroke-width="1.4659797833333332" stroke-dasharray=""/><g><g><rect fill="yellow" stroke="none" x="166.60964179437497" y="315.4202101819999" width="143.4287109375" height="17.767674974"/><text fill="black" stroke="none" font-family="sans-serif" font-size="11pt" font-style="normal" font-weight="normal" text-decoration="normal" x="166.60964179437497" y="328.4381106579999" text-anchor="start" dominant-baseline="alphabetic" xml:space="preserve">Irene agrees to final V</text></g><g><g><rect fill="white" stroke="none" x="373.52440909753255" y="321.40140769799996" width="87.84729040359375" height="22.86928462"/></g><text fill="black" stroke="none" font-family="sans-serif" font-size="11pt" font-style="normal" font-weight="normal" text-decoration="normal" x="376.16317270753257" y="337.233989358" text-anchor="start" dominant-baseline="alphabetic" xml:space="preserve">1a: V.Final(I)</text></g><g><path fill="none" stroke="black" paint-order="fill stroke markers" d=" M 491.43341680678384 344.27069231799993 L 357.9465720512083 344.27069231799993" stroke-miterlimit="10" stroke-width="1.4659797833333332" stroke-dasharray=""/><g transform="translate(343.462691791875,344.27069231799993) translate(-343.462691791875,-344.27069231799993)"><path fill="black" stroke="none" paint-order="stroke fill markers" d=" M 358.12248962520835 336.9407934013333 L 343.462691791875 344.27069231799993 L 358.12248962520835 351.6005912346666 Z"/></g></g><g><g><rect fill="white" stroke="none" x="522.8945558043359" y="321.40140769799996" width="87.84729040359375" height="22.86928462"/></g><text fill="black" stroke="none" font-family="sans-serif" font-size="11pt" font-style="normal" font-weight="normal" text-decoration="normal" x="525.5333194143359" y="337.233989358" text-anchor="start" dominant-baseline="alphabetic" xml:space="preserve">1b: V.Final(I)</text></g><g><path fill="none" stroke="black" paint-order="fill stroke markers" d=" M 491.43341680678384 344.27069231799993 L 627.7191049461485 344.27069231799993" stroke-miterlimit="10" stroke-width="1.4659797833333332" stroke-dasharray=""/><g transform="translate(642.2029852054818,344.27069231799993) translate(-642.2029852054818,-344.27069231799993)"><path fill="black" stroke="none" paint-order="stroke fill markers" d=" M 627.5431873721485 336.9407934013333 L 642.2029852054818 344.27069231799993 L 627.5431873721485 351.6005912346666 Z"/></g></g><path fill="white" stroke="black" paint-order="fill stroke markers" d=" M 642.2029852054818 390.8888494279999 L 650.9988639054818 390.8888494279999 M 650.9988639054818 370.65832841799994 L 820.5219273307163 370.65832841799994 L 836.3545089907162 386.49091007799996 L 836.3545089907162 411.1193704379999 L 650.9988639054818 411.1193704379999 L 650.9988639054818 370.65832841799994 M 820.5219273307163 370.65832841799994 L 820.5219273307163 386.49091007799996 L 836.3545089907162 386.49091007799996" stroke-miterlimit="10" stroke-width="1.4659797833333332" stroke-dasharray=""/><g><g><rect fill="yellow" stroke="none" x="675.6273242654818" y="382.2688883019999" width="136.09872436523438" height="17.767674974"/><text fill="black" stroke="none" font-family="sans-serif" font-size="11pt" font-style="normal" font-weight="normal" text-decoration="normal" x="675.6273242654818" y="395.2867887779999" text-anchor="start" dominant-baseline="alphabetic" xml:space="preserve">Bob agrees to final V</text></g><g><g><rect fill="white" stroke="none" x="446.4682524399479" y="388.25008581799995" width="92.72917211746093" height="22.86928462"/></g><text fill="black" stroke="none" font-family="sans-serif" font-size="11pt" font-style="normal" font-weight="normal" text-decoration="normal" x="449.1070160499479" y="404.08266747799996" text-anchor="start" dominant-baseline="alphabetic" xml:space="preserve">1c: V.Final(B)</text></g><g><path fill="none" stroke="black" paint-order="fill stroke markers" d=" M 642.2029852054818 411.1193704379999 L 357.9465720512083 411.1193704379999" stroke-miterlimit="10" stroke-width="1.4659797833333332" stroke-dasharray=""/><g transform="translate(343.462691791875,411.1193704379999) translate(-343.462691791875,-411.1193704379999)"><path fill="black" stroke="none" paint-order="stroke fill markers" d=" M 358.12248962520835 403.78947152133327 L 343.462691791875 411.1193704379999 L 358.12248962520835 418.44926935466657 Z"/></g></g><g><g><rect fill="white" stroke="none" x="520.0420167418359" y="437.5070065379999" width="93.55236852859375" height="22.86928462"/></g><text fill="black" stroke="none" font-family="sans-serif" font-size="11pt" font-style="normal" font-weight="normal" text-decoration="normal" x="522.6807803518359" y="453.33958819799994" text-anchor="start" dominant-baseline="alphabetic" xml:space="preserve">1d: V.Final(B)</text></g><g><path fill="none" stroke="black" paint-order="fill stroke markers" d=" M 642.2029852054818 460.3762911579999 L 505.91729706611716 460.3762911579999" stroke-miterlimit="10" stroke-width="1.4659797833333332" stroke-dasharray=""/><g transform="translate(491.43341680678384,460.3762911579999) translate(-491.43341680678384,-460.3762911579999)"><path fill="black" stroke="none" paint-order="stroke fill markers" d=" M 506.0932146401172 453.04639224133325 L 491.43341680678384 460.3762911579999 L 506.0932146401172 467.70619007466655 Z"/></g></g><path fill="white" stroke="black" paint-order="fill stroke markers" d=" M 327.63011013187497 486.7639272579999 L 642.2029852054818 486.7639272579999 L 658.0355668654818 502.5965089179999 L 658.0355668654818 527.2249692779999 L 327.63011013187497 527.2249692779999 L 327.63011013187497 486.7639272579999 M 642.2029852054818 486.7639272579999 L 642.2029852054818 502.5965089179999 L 658.0355668654818 502.5965089179999" stroke-miterlimit="10" stroke-width="1.4659797833333332" stroke-dasharray=""/><g><text fill="black" stroke="none" font-family="sans-serif" font-size="11pt" font-style="normal" font-weight="normal" text-decoration="normal" x="441.89154668959634" y="511.3923876179999" text-anchor="start" dominant-baseline="alphabetic" xml:space="preserve">End of Round 1</text></g><path fill="white" stroke="black" paint-order="fill stroke markers" d=" M 343.462691791875 573.8431263879999 L 334.666813091875 573.8431263879999 M 60.49946146367188 553.6126053779998 L 318.83423143187497 553.6126053779998 L 334.666813091875 569.4451870379997 L 334.666813091875 594.0736473979998 L 60.49946146367188 594.0736473979998 L 60.49946146367188 553.6126053779998 M 318.83423143187497 553.6126053779998 L 318.83423143187497 569.4451870379997 L 334.666813091875 569.4451870379997" stroke-miterlimit="10" stroke-width="1.4659797833333332" stroke-dasharray=""/><g><g><rect fill="yellow" stroke="none" x="85.12792182367187" y="565.2231652619998" width="224.91043090820312" height="17.767674974"/><text fill="black" stroke="none" font-family="sans-serif" font-size="11pt" font-style="normal" font-weight="normal" text-decoration="normal" x="85.12792182367187" y="578.2410657379999" text-anchor="start" dominant-baseline="alphabetic" xml:space="preserve">Alice proposes to defund V from L </text></g><g><g><rect fill="white" stroke="none" x="364.27960471520834" y="571.2043627779998" width="106.33689916824218" height="22.86928462"/></g><text fill="black" stroke="none" font-family="sans-serif" font-size="11pt" font-style="normal" font-weight="normal" text-decoration="normal" x="366.91836832520835" y="587.0369444379998" text-anchor="start" dominant-baseline="alphabetic" xml:space="preserve">2a: L.defund(A)</text></g><g><path fill="none" stroke="black" paint-order="fill stroke markers" d=" M 343.462691791875 594.0736473979998 L 476.9495365474505 594.0736473979998" stroke-miterlimit="10" stroke-width="1.4659797833333332" stroke-dasharray=""/><g transform="translate(491.43341680678384,594.0736473979998) translate(-491.43341680678384,-594.0736473979998)"><path fill="black" stroke="none" paint-order="stroke fill markers" d=" M 476.7736189734505 586.7437484813331 L 491.43341680678384 594.0736473979998 L 476.7736189734505 601.4035463146665 Z"/></g></g><path fill="white" stroke="black" paint-order="fill stroke markers" d=" M 642.2029852054818 573.8431263879999 L 650.9988639054818 573.8431263879999 M 650.9988639054818 553.6126053779998 L 909.6987004020052 553.6126053779998 L 925.5312820620052 569.4451870379997 L 925.5312820620052 594.0736473979998 L 650.9988639054818 594.0736473979998 L 650.9988639054818 553.6126053779998 M 909.6987004020052 553.6126053779998 L 909.6987004020052 569.4451870379997 L 925.5312820620052 569.4451870379997" stroke-miterlimit="10" stroke-width="1.4659797833333332" stroke-dasharray=""/><g><g><rect fill="yellow" stroke="none" x="675.6273242654818" y="565.2231652619998" width="225.27549743652344" height="17.767674974"/><text fill="black" stroke="none" font-family="sans-serif" font-size="11pt" font-style="normal" font-weight="normal" text-decoration="normal" x="675.6273242654818" y="578.2410657379999" text-anchor="start" dominant-baseline="alphabetic" xml:space="preserve">Irene proposes to defund V from L'</text></g><g><g><rect fill="white" stroke="none" x="515.1028687926172" y="571.2043627779998" width="103.43066442703125" height="22.86928462"/></g><text fill="black" stroke="none" font-family="sans-serif" font-size="11pt" font-style="normal" font-weight="normal" text-decoration="normal" x="517.7416324026171" y="587.0369444379998" text-anchor="start" dominant-baseline="alphabetic" xml:space="preserve">2b: L'.defund(I)</text></g><g><path fill="none" stroke="black" paint-order="fill stroke markers" d=" M 491.43341680678384 594.0736473979998 L 627.7191049461485 594.0736473979998" stroke-miterlimit="10" stroke-width="1.4659797833333332" stroke-dasharray=""/><g transform="translate(642.2029852054818,594.0736473979998) translate(-642.2029852054818,-594.0736473979998)"><path fill="black" stroke="none" paint-order="stroke fill markers" d=" M 627.5431873721485 586.7437484813331 L 642.2029852054818 594.0736473979998 L 627.5431873721485 601.4035463146665 Z"/></g></g><path fill="white" stroke="black" paint-order="fill stroke markers" d=" M 343.462691791875 640.6918045079998 L 334.666813091875 640.6918045079998 M 8.7958787 620.4612834979997 L 318.83423143187497 620.4612834979997 L 334.666813091875 636.2938651579997 L 334.666813091875 660.9223255179998 L 8.7958787 660.9223255179998 L 8.7958787 620.4612834979997 M 318.83423143187497 620.4612834979997 L 318.83423143187497 636.2938651579997 L 334.666813091875 636.2938651579997" stroke-miterlimit="10" stroke-width="1.4659797833333332" stroke-dasharray=""/><g><g><rect fill="yellow" stroke="none" x="33.424339059999994" y="632.0718433819998" width="276.614013671875" height="17.767674974"/><text fill="black" stroke="none" font-family="sans-serif" font-size="11pt" font-style="normal" font-weight="normal" text-decoration="normal" x="33.424339059999994" y="645.0897438579998" text-anchor="start" dominant-baseline="alphabetic" xml:space="preserve">Irene accepts Alice's defund proposal for L</text></g><g><g><rect fill="white" stroke="none" x="367.54374198327474" y="638.0530408979997" width="99.80862463210937" height="22.86928462"/></g><text fill="black" stroke="none" font-family="sans-serif" font-size="11pt" font-style="normal" font-weight="normal" text-decoration="normal" x="370.18250559327475" y="653.8856225579997" text-anchor="start" dominant-baseline="alphabetic" xml:space="preserve">2c: L.defund(I)</text></g><g><path fill="none" stroke="black" paint-order="fill stroke markers" d=" M 491.43341680678384 660.9223255179998 L 357.9465720512083 660.9223255179998" stroke-miterlimit="10" stroke-width="1.4659797833333332" stroke-dasharray=""/><g transform="translate(343.462691791875,660.9223255179998) translate(-343.462691791875,-660.9223255179998)"><path fill="black" stroke="none" paint-order="stroke fill markers" d=" M 358.12248962520835 653.592426601333 L 343.462691791875 660.9223255179998 L 358.12248962520835 668.2522244346665 Z"/></g></g><g><g><rect fill="white" stroke="none" x="512.2503297301172" y="638.0530408979997" width="109.13574255203125" height="22.86928462"/></g><text fill="black" stroke="none" font-family="sans-serif" font-size="11pt" font-style="normal" font-weight="normal" text-decoration="normal" x="514.8890933401171" y="653.8856225579997" text-anchor="start" dominant-baseline="alphabetic" xml:space="preserve">2d: L'.defund(B)</text></g><g><path fill="none" stroke="black" paint-order="fill stroke markers" d=" M 642.2029852054818 660.9223255179998 L 505.91729706611716 660.9223255179998" stroke-miterlimit="10" stroke-width="1.4659797833333332" stroke-dasharray=""/><g transform="translate(491.43341680678384,660.9223255179998) translate(-491.43341680678384,-660.9223255179998)"><path fill="black" stroke="none" paint-order="stroke fill markers" d=" M 506.0932146401172 653.592426601333 L 491.43341680678384 660.9223255179998 L 506.0932146401172 668.2522244346665 Z"/></g></g><path fill="white" stroke="black" paint-order="fill stroke markers" d=" M 642.2029852054818 640.6918045079998 L 650.9988639054818 640.6918045079998 M 650.9988639054818 620.4612834979997 L 967.1074070670443 620.4612834979997 L 982.9399887270442 636.2938651579997 L 982.9399887270442 660.9223255179998 L 650.9988639054818 660.9223255179998 L 650.9988639054818 620.4612834979997 M 967.1074070670443 620.4612834979997 L 967.1074070670443 636.2938651579997 L 982.9399887270442 636.2938651579997" stroke-miterlimit="10" stroke-width="1.4659797833333332" stroke-dasharray=""/><g><g><rect fill="yellow" stroke="none" x="675.6273242654818" y="632.0718433819998" width="282.6842041015625" height="17.767674974"/><text fill="black" stroke="none" font-family="sans-serif" font-size="11pt" font-style="normal" font-weight="normal" text-decoration="normal" x="675.6273242654818" y="645.0897438579998" text-anchor="start" dominant-baseline="alphabetic" xml:space="preserve">Bob accepts Irene's defund proposal with L'</text></g><path fill="white" stroke="black" paint-order="fill stroke markers" d=" M 327.63011013187497 687.3099616179996 L 642.2029852054818 687.3099616179996 L 658.0355668654818 703.1425432779996 L 658.0355668654818 727.7710036379997 L 327.63011013187497 727.7710036379997 L 327.63011013187497 687.3099616179996 M 642.2029852054818 687.3099616179996 L 642.2029852054818 703.1425432779996 L 658.0355668654818 703.1425432779996" stroke-miterlimit="10" stroke-width="1.4659797833333332" stroke-dasharray=""/><g><text fill="black" stroke="none" font-family="sans-serif" font-size="11pt" font-style="normal" font-weight="normal" text-decoration="normal" x="441.89154668959634" y="711.9384219779997" text-anchor="start" dominant-baseline="alphabetic" xml:space="preserve">End of Round 2</text></g></g></g></g></g></g></g></g></g></g></svg>