<svg version="1.1" xmlns="http://www.w3.org/2000/svg" xmlns:xlink="http://www.w3.org/1999/xlink" width="909" height="1280"><desc>title%20Virtual%20Defunding%20a%20channel%20V%20with%20Ledger%20Channels%20L%2C%20L'%0A%0Aparticipant%20%22Alice%22%20as%20A%0Aparticipant%20%22Irene%22%20as%20I%0Aparticipant%20%22Bob%22%20as%20B%0A%0Aparallel%0Anote%20right%20of%20B%20%3A%20%3Cbackground%3A%23yellow%3EBob%20requests%20defund%0AB-%3EA%3A%20V.requestClose%0Aparallel%20off%0Anote%20over%20A%2CB%3A%20(optional)%0A%0Anote%20over%20I%20%3A%20%3Cbackground%3A%23yellow%3EIrene%20requests%20defund%0Aparallel%0AI-%3EA%3A%20V.requestClose%0Aparallel%20off%0Anote%20over%20A%2CB%3A%20(optional)%0A%0Aparallel%0Anote%20left%20of%20A%20%3A%20%3Cbackground%3A%23yellow%3EAlice%20instigates%20defund%0AA-%3EB%3A%20%5B0%5D%20V.isFinal(A)%20(adjustments%20made)%0Aparallel%20off%0AB-%3EB%3A%20verify%20message%0Anote%20over%20A%2CB%3A%20End%20of%20Round%200%0A%0Aparallel%0Anote%20right%20of%20B%20%3A%20%3Cbackground%3A%23yellow%3EBob%20forwards%20final%20sig%0AB-%3EI%3A%20%5B1%5D%20V.isFinal(A%2CB)%0Aparallel%20off%0Anote%20over%20A%2CB%3A%20End%20of%20Round%201%0A%0A%0Anote%20over%20I%20%3A%20%3Cbackground%3A%23yellow%3EIrene%20broadcasts%20final%20sig%0Aparallel%0AI-%3EA%3A%20%5B2a%5D%20V.isFinal(I)%0AI-%3EB%3A%20%5B2b%5D%20V.isFinal(I)%0Aparallel%20off%0Anote%20over%20A%2CB%3A%20End%20of%20Round%202%0A%0A%0A%0Aparallel%20%0Anote%20left%20of%20A%20%3A%20%3Cbackground%3A%23yellow%3ELeader%20votes%20to%20defund%20V%20with%20L%0AA-%3EI%3A%20%5B3a%5D%3A%20L.defundV(A)%0AB-%3EI%3A%20%5B3b%5D%3A%20L'.defundV(B)%0Anote%20right%20of%20B%20%3A%20%3Cbackground%3A%23yellow%3ELeader%20votes%20to%20defund%20V%20with%20L'%0Aparallel%20off%0A%0Anote%20over%20A%2CB%3A%20End%20of%20Round%203%0A%0Aparallel%0Anote%20left%20of%20A%20%3A%20%3Cbackground%3A%23yellow%3EFollower%20votes%20to%20defund%20V%20from%20L%0AI-%3EA%3A%20%5B4a%5D%3A%20L.defundV(I)%0Anote%20right%20of%20B%20%3A%20%3Cbackground%3A%23yellow%3EFollower%20votes%20to%20defund%20V%20from%20L'%0AI-%3EB%3A%20%5B4b%5D%3A%20L'.defundV(I)%0Aparallel%20off%0Anote%20over%20A%2CB%3A%20End%20of%20Round%204</desc><defs/><g><g/><g/><g/><g/><g/><g/><g/><g/><g/><g/><g/><g/><g/><g/><g/><g/><g/><g/><g/><g/><g/><g/><g/><g/><g/><g/><g/><g/><g/><g/><g><rect fill="white" stroke="none" x="0" y="0" width="909" height="1280"/></g><g><text fill="black" stroke="none" font-family="sans-serif" font-size="16.5pt" font-style="normal" font-weight="normal" text-decoration="normal" x="176.42482610854165" y="26.3876361" text-anchor="start" dominant-baseline="alphabetic" xml:space="preserve">Virtual Defunding a channel V with Ledger Channels L, L'</text></g><g/><g><path fill="none" stroke="black" paint-order="fill stroke markers" d=" M 286.03973341785155 103.26361593799999 L 286.03973341785155 1280.1521859979996" stroke-miterlimit="10" stroke-width="1.4659797833333332" stroke-dasharray="13.532121076923076,5.863919133333333"/><path fill="none" stroke="black" paint-order="fill stroke markers" d=" M 451.9345764747526 103.26361593799999 L 451.9345764747526 1280.1521859979996" stroke-miterlimit="10" stroke-width="1.4659797833333332" stroke-dasharray="13.532121076923076,5.863919133333333"/><path fill="none" stroke="black" paint-order="fill stroke markers" d=" M 620.6282629154427 103.26361593799999 L 620.6282629154427 1280.1521859979996" stroke-miterlimit="10" stroke-width="1.4659797833333332" stroke-dasharray="13.532121076923076,5.863919133333333"/></g><g><path fill="none" stroke="none"/><g><path fill="white" stroke="black" paint-order="fill stroke markers" d=" M 251.06507287908593 55.94178853199999 L 321.0143939566172 55.94178853199999 L 321.0143939566172 103.26361593799999 L 251.06507287908593 103.26361593799999 L 251.06507287908593 55.94178853199999 Z" stroke-miterlimit="10" stroke-width="2.814681184" stroke-dasharray=""/></g><g><text fill="black" stroke="none" font-family="sans-serif" font-size="11pt" font-style="normal" font-weight="normal" text-decoration="normal" x="270.1521296580859" y="85.67185853800001" text-anchor="start" dominant-baseline="alphabetic" xml:space="preserve">Alice</text></g><path fill="none" stroke="none"/><g><path fill="white" stroke="black" paint-order="fill stroke markers" d=" M 416.1402977108893 55.94178853199999 L 487.72885523861584 55.94178853199999 L 487.72885523861584 103.26361593799999 L 416.1402977108893 103.26361593799999 L 416.1402977108893 55.94178853199999 Z" stroke-miterlimit="10" stroke-width="2.814681184" stroke-dasharray=""/></g><g><text fill="black" stroke="none" font-family="sans-serif" font-size="11pt" font-style="normal" font-weight="normal" text-decoration="normal" x="435.2273544898893" y="85.67185853800001" text-anchor="start" dominant-baseline="alphabetic" xml:space="preserve">Irene</text></g><path fill="none" stroke="none"/><g><path fill="white" stroke="black" paint-order="fill stroke markers" d=" M 588.4989774377123 55.94178853199999 L 652.7575483931732 55.94178853199999 L 652.7575483931732 103.26361593799999 L 588.4989774377123 103.26361593799999 L 588.4989774377123 55.94178853199999 Z" stroke-miterlimit="10" stroke-width="2.814681184" stroke-dasharray=""/></g><g><text fill="black" stroke="none" font-family="sans-serif" font-size="11pt" font-style="normal" font-weight="normal" text-decoration="normal" x="607.5860342167123" y="85.67185853800001" text-anchor="start" dominant-baseline="alphabetic" xml:space="preserve">Bob</text></g></g><g><path fill="white" stroke="black" paint-order="fill stroke markers" d=" M 620.6282629154427 158.677651748 L 629.4241416154427 158.677651748 M 629.4241416154427 138.447130738 L 798.1454930045444 138.447130738 L 813.9780746645444 154.279712398 L 813.9780746645444 178.90817275799998 L 629.4241416154427 178.90817275799998 L 629.4241416154427 138.447130738 M 798.1454930045444 138.447130738 L 798.1454930045444 154.279712398 L 813.9780746645444 154.279712398" stroke-miterlimit="10" stroke-width="1.4659797833333332" stroke-dasharray=""/><g><g><rect fill="yellow" stroke="none" x="654.0526019754427" y="150.05769062200002" width="135.29701232910156" height="17.767674974"/><text fill="black" stroke="none" font-family="sans-serif" font-size="11pt" font-style="normal" font-weight="normal" text-decoration="normal" x="654.0526019754427" y="163.07559109800002" text-anchor="start" dominant-baseline="alphabetic" xml:space="preserve">Bob requests defund</text></g><g><g><rect fill="white" stroke="none" x="401.25359179541664" y="156.03888813799998" width="104.16081274246093" height="22.86928462"/></g><text fill="black" stroke="none" font-family="sans-serif" font-size="11pt" font-style="normal" font-weight="normal" text-decoration="normal" x="403.89235540541665" y="171.871469798" text-anchor="start" dominant-baseline="alphabetic" xml:space="preserve">V.requestClose</text></g><g><path fill="none" stroke="black" paint-order="fill stroke markers" d=" M 620.6282629154427 178.90817275799998 L 300.52361367718487 178.90817275799998" stroke-miterlimit="10" stroke-width="1.4659797833333332" stroke-dasharray=""/><g transform="translate(286.03973341785155,178.90817275799998) translate(-286.03973341785155,-178.90817275799998)"><path fill="black" stroke="none" paint-order="stroke fill markers" d=" M 300.6995312511849 171.5782738413333 L 286.03973341785155 178.90817275799998 L 300.6995312511849 186.23807167466666 Z"/></g></g><path fill="white" stroke="black" paint-order="fill stroke markers" d=" M 270.20715175785153 205.295808858 L 620.6282629154427 205.295808858 L 636.4608445754427 221.12839051799997 L 636.4608445754427 245.75685087799997 L 270.20715175785153 245.75685087799997 L 270.20715175785153 205.295808858 M 620.6282629154427 205.295808858 L 620.6282629154427 221.12839051799997 L 636.4608445754427 221.12839051799997" stroke-miterlimit="10" stroke-width="1.4659797833333332" stroke-dasharray=""/><g><text fill="black" stroke="none" font-family="sans-serif" font-size="11pt" font-style="normal" font-weight="normal" text-decoration="normal" x="422.77567907485025" y="229.924269218" text-anchor="start" dominant-baseline="alphabetic" xml:space="preserve">(optional)</text></g><path fill="white" stroke="black" paint-order="fill stroke markers" d=" M 355.992616664069 272.144486978 L 532.0439546254362 272.144486978 L 547.8765362854361 287.977068638 L 547.8765362854361 312.60552899799995 L 355.992616664069 312.60552899799995 L 355.992616664069 272.144486978 M 532.0439546254362 272.144486978 L 532.0439546254362 287.977068638 L 547.8765362854361 287.977068638" stroke-miterlimit="10" stroke-width="1.4659797833333332" stroke-dasharray=""/><g><g><rect fill="yellow" stroke="none" x="380.621077024069" y="283.7550468619999" width="142.6269989013672" height="17.767674974"/><text fill="black" stroke="none" font-family="sans-serif" font-size="11pt" font-style="normal" font-weight="normal" text-decoration="normal" x="380.621077024069" y="296.77294733799994" text-anchor="start" dominant-baseline="alphabetic" xml:space="preserve">Irene requests defund</text></g><g><g><rect fill="white" stroke="none" x="316.9067485750716" y="338.99316509799996" width="104.16081274246093" height="22.86928462"/></g><text fill="black" stroke="none" font-family="sans-serif" font-size="11pt" font-style="normal" font-weight="normal" text-decoration="normal" x="319.54551218507163" y="354.825746758" text-anchor="start" dominant-baseline="alphabetic" xml:space="preserve">V.requestClose</text></g><g><path fill="none" stroke="black" paint-order="fill stroke markers" d=" M 451.9345764747526 361.86244971799994 L 300.52361367718487 361.86244971799994" stroke-miterlimit="10" stroke-width="1.4659797833333332" stroke-dasharray=""/><g transform="translate(286.03973341785155,361.86244971799994) translate(-286.03973341785155,-361.86244971799994)"><path fill="black" stroke="none" paint-order="stroke fill markers" d=" M 300.6995312511849 354.5325508013333 L 286.03973341785155 361.86244971799994 L 300.6995312511849 369.1923486346666 Z"/></g></g><path fill="white" stroke="black" paint-order="fill stroke markers" d=" M 270.20715175785153 388.25008581799995 L 620.6282629154427 388.25008581799995 L 636.4608445754427 404.08266747799996 L 636.4608445754427 428.7111278379999 L 270.20715175785153 428.7111278379999 L 270.20715175785153 388.25008581799995 M 620.6282629154427 388.25008581799995 L 620.6282629154427 404.08266747799996 L 636.4608445754427 404.08266747799996" stroke-miterlimit="10" stroke-width="1.4659797833333332" stroke-dasharray=""/><g><text fill="black" stroke="none" font-family="sans-serif" font-size="11pt" font-style="normal" font-weight="normal" text-decoration="normal" x="422.77567907485025" y="412.8785461779999" text-anchor="start" dominant-baseline="alphabetic" xml:space="preserve">(optional)</text></g><path fill="white" stroke="black" paint-order="fill stroke markers" d=" M 286.03973341785155 475.3292849479999 L 277.24385471785155 475.3292849479999 M 81.29409342167966 455.09876393799993 L 261.41127305785153 455.09876393799993 L 277.24385471785155 470.93134559799995 L 277.24385471785155 495.5598059579999 L 81.29409342167966 495.5598059579999 L 81.29409342167966 455.09876393799993 M 261.41127305785153 455.09876393799993 L 261.41127305785153 470.93134559799995 L 277.24385471785155 470.93134559799995" stroke-miterlimit="10" stroke-width="1.4659797833333332" stroke-dasharray=""/><g><g><rect fill="yellow" stroke="none" x="105.92255378167965" y="466.7093238219999" width="146.69284057617188" height="17.767674974"/><text fill="black" stroke="none" font-family="sans-serif" font-size="11pt" font-style="normal" font-weight="normal" text-decoration="normal" x="105.92255378167965" y="479.7272242979999" text-anchor="start" dominant-baseline="alphabetic" xml:space="preserve">Alice instigates defund</text></g><g><g><rect fill="white" stroke="none" x="336.4934218125065" y="472.69052133799994" width="233.68115270828125" height="22.86928462"/></g><text fill="black" stroke="none" font-family="sans-serif" font-size="11pt" font-style="normal" font-weight="normal" text-decoration="normal" x="339.1321854225065" y="488.52310299799996" text-anchor="start" dominant-baseline="alphabetic" xml:space="preserve">[0] V.isFinal(A) (adjustments made)</text></g><g><path fill="none" stroke="black" paint-order="fill stroke markers" d=" M 286.03973341785155 495.5598059579999 L 606.1443826561094 495.5598059579999" stroke-miterlimit="10" stroke-width="1.4659797833333332" stroke-dasharray=""/><g transform="translate(620.6282629154427,495.5598059579999) translate(-620.6282629154427,-495.5598059579999)"><path fill="black" stroke="none" paint-order="stroke fill markers" d=" M 605.9684650821094 488.22990704133326 L 620.6282629154427 495.5598059579999 L 605.9684650821094 502.88970487466656 Z"/></g></g><g><g><rect fill="white" stroke="none" x="641.4451758387761" y="521.947442058" width="103.86015356277343" height="22.86928462"/></g><text fill="black" stroke="none" font-family="sans-serif" font-size="11pt" font-style="normal" font-weight="normal" text-decoration="normal" x="644.083939448776" y="537.7800237179999" text-anchor="start" dominant-baseline="alphabetic" xml:space="preserve">verify message</text></g><g><path fill="none" stroke="black" paint-order="fill stroke markers" d=" M 620.6282629154427 544.8167266779999 L 690.9952925154428 544.8167266779999 L 690.9952925154428 567.6860112979999 L 635.1121431747761 567.6860112979999" stroke-miterlimit="10" stroke-width="1.4659797833333332" stroke-dasharray=""/><g transform="translate(620.6282629154427,567.6860112979999) translate(-620.6282629154427,-567.6860112979999)"><path fill="black" stroke="none" paint-order="stroke fill markers" d=" M 635.288060748776 560.3561123813332 L 620.6282629154427 567.6860112979999 L 635.288060748776 575.0159102146666 Z"/></g></g><path fill="white" stroke="black" paint-order="fill stroke markers" d=" M 270.20715175785153 594.0736473979999 L 620.6282629154427 594.0736473979999 L 636.4608445754427 609.9062290579999 L 636.4608445754427 634.534689418 L 270.20715175785153 634.534689418 L 270.20715175785153 594.0736473979999 M 620.6282629154427 594.0736473979999 L 620.6282629154427 609.9062290579999 L 636.4608445754427 609.9062290579999" stroke-miterlimit="10" stroke-width="1.4659797833333332" stroke-dasharray=""/><g><text fill="black" stroke="none" font-family="sans-serif" font-size="11pt" font-style="normal" font-weight="normal" text-decoration="normal" x="402.3927063575651" y="618.702107758" text-anchor="start" dominant-baseline="alphabetic" xml:space="preserve">End of Round 0</text></g><path fill="white" stroke="black" paint-order="fill stroke markers" d=" M 620.6282629154427 681.1528465279999 L 629.4241416154427 681.1528465279999 M 629.4241416154427 660.9223255179999 L 802.9987339713413 660.9223255179999 L 818.8313156313412 676.7549071779998 L 818.8313156313412 701.3833675379999 L 629.4241416154427 701.3833675379999 L 629.4241416154427 660.9223255179999 M 802.9987339713413 660.9223255179999 L 802.9987339713413 676.7549071779998 L 818.8313156313412 676.7549071779998" stroke-miterlimit="10" stroke-width="1.4659797833333332" stroke-dasharray=""/><g><g><rect fill="yellow" stroke="none" x="654.0526019754427" y="672.5328854019999" width="140.15025329589844" height="17.767674974"/><text fill="black" stroke="none" font-family="sans-serif" font-size="11pt" font-style="normal" font-weight="normal" text-decoration="normal" x="654.0526019754427" y="685.5507858779999" text-anchor="start" dominant-baseline="alphabetic" xml:space="preserve">Bob forwards final sig</text></g><g><g><rect fill="white" stroke="none" x="479.32628798207026" y="678.5140829179999" width="113.91026342605468" height="22.86928462"/></g><text fill="black" stroke="none" font-family="sans-serif" font-size="11pt" font-style="normal" font-weight="normal" text-decoration="normal" x="481.96505159207027" y="694.3466645779998" text-anchor="start" dominant-baseline="alphabetic" xml:space="preserve">[1] V.isFinal(A,B)</text></g><g><path fill="none" stroke="black" paint-order="fill stroke markers" d=" M 620.6282629154427 701.3833675379999 L 466.4184567340859 701.3833675379999" stroke-miterlimit="10" stroke-width="1.4659797833333332" stroke-dasharray=""/><g transform="translate(451.9345764747526,701.3833675379999) translate(-451.9345764747526,-701.3833675379999)"><path fill="black" stroke="none" paint-order="stroke fill markers" d=" M 466.59437430808595 694.0534686213332 L 451.9345764747526 701.3833675379999 L 466.59437430808595 708.7132664546666 Z"/></g></g><path fill="white" stroke="black" paint-order="fill stroke markers" d=" M 270.20715175785153 727.7710036379998 L 620.6282629154427 727.7710036379998 L 636.4608445754427 743.6035852979998 L 636.4608445754427 768.2320456579998 L 270.20715175785153 768.2320456579998 L 270.20715175785153 727.7710036379998 M 620.6282629154427 727.7710036379998 L 620.6282629154427 743.6035852979998 L 636.4608445754427 743.6035852979998" stroke-miterlimit="10" stroke-width="1.4659797833333332" stroke-dasharray=""/><g><text fill="black" stroke="none" font-family="sans-serif" font-size="11pt" font-style="normal" font-weight="normal" text-decoration="normal" x="402.3927063575651" y="752.3994639979999" text-anchor="start" dominant-baseline="alphabetic" xml:space="preserve">End of Round 1</text></g><path fill="white" stroke="black" paint-order="fill stroke markers" d=" M 345.8172550307682 794.6196817579997 L 542.219316258737 794.6196817579997 L 558.0518979187369 810.4522634179997 L 558.0518979187369 835.0807237779998 L 345.8172550307682 835.0807237779998 L 345.8172550307682 794.6196817579997 M 542.219316258737 794.6196817579997 L 542.219316258737 810.4522634179997 L 558.0518979187369 810.4522634179997" stroke-miterlimit="10" stroke-width="1.4659797833333332" stroke-dasharray=""/><g><g><rect fill="yellow" stroke="none" x="370.4457153907682" y="806.2302416419998" width="162.97772216796875" height="17.767674974"/><text fill="black" stroke="none" font-family="sans-serif" font-size="11pt" font-style="normal" font-weight="normal" text-decoration="normal" x="370.4457153907682" y="819.2481421179998" text-anchor="start" dominant-baseline="alphabetic" xml:space="preserve">Irene broadcasts final sig</text></g><g><g><rect fill="white" stroke="none" x="317.7335231722396" y="861.4683598779998" width="102.507263548125" height="22.86928462"/></g><text fill="black" stroke="none" font-family="sans-serif" font-size="11pt" font-style="normal" font-weight="normal" text-decoration="normal" x="320.3722867822396" y="877.3009415379997" text-anchor="start" dominant-baseline="alphabetic" xml:space="preserve">[2a] V.isFinal(I)</text></g><g><path fill="none" stroke="black" paint-order="fill stroke markers" d=" M 451.9345764747526 884.3376444979998 L 300.52361367718487 884.3376444979998" stroke-miterlimit="10" stroke-width="1.4659797833333332" stroke-dasharray=""/><g transform="translate(286.03973341785155,884.3376444979998) translate(-286.03973341785155,-884.3376444979998)"><path fill="black" stroke="none" paint-order="stroke fill markers" d=" M 300.6995312511849 877.0077455813331 L 286.03973341785155 884.3376444979998 L 300.6995312511849 891.6675434146665 Z"/></g></g><g><g><rect fill="white" stroke="none" x="485.0277879210351" y="861.4683598779998" width="102.507263548125" height="22.86928462"/></g><text fill="black" stroke="none" font-family="sans-serif" font-size="11pt" font-style="normal" font-weight="normal" text-decoration="normal" x="487.6665515310351" y="877.3009415379997" text-anchor="start" dominant-baseline="alphabetic" xml:space="preserve">[2b] V.isFinal(I)</text></g><g><path fill="none" stroke="black" paint-order="fill stroke markers" d=" M 451.9345764747526 884.3376444979998 L 606.1443826561094 884.3376444979998" stroke-miterlimit="10" stroke-width="1.4659797833333332" stroke-dasharray=""/><g transform="translate(620.6282629154427,884.3376444979998) translate(-620.6282629154427,-884.3376444979998)"><path fill="black" stroke="none" paint-order="stroke fill markers" d=" M 605.9684650821094 877.0077455813331 L 620.6282629154427 884.3376444979998 L 605.9684650821094 891.6675434146665 Z"/></g></g><path fill="white" stroke="black" paint-order="fill stroke markers" d=" M 270.20715175785153 910.7252805979998 L 620.6282629154427 910.7252805979998 L 636.4608445754427 926.5578622579998 L 636.4608445754427 951.1863226179998 L 270.20715175785153 951.1863226179998 L 270.20715175785153 910.7252805979998 M 620.6282629154427 910.7252805979998 L 620.6282629154427 926.5578622579998 L 636.4608445754427 926.5578622579998" stroke-miterlimit="10" stroke-width="1.4659797833333332" stroke-dasharray=""/><g><text fill="black" stroke="none" font-family="sans-serif" font-size="11pt" font-style="normal" font-weight="normal" text-decoration="normal" x="402.3927063575651" y="935.3537409579999" text-anchor="start" dominant-baseline="alphabetic" xml:space="preserve">End of Round 2</text></g><path fill="white" stroke="black" paint-order="fill stroke markers" d=" M 286.03973341785155 997.8044797279998 L 277.24385471785155 997.8044797279998 M 21.795161536914062 977.5739587179997 L 261.41127305785153 977.5739587179997 L 277.24385471785155 993.4065403779997 L 277.24385471785155 1018.0350007379998 L 21.795161536914062 1018.0350007379998 L 21.795161536914062 977.5739587179997 M 261.41127305785153 977.5739587179997 L 261.41127305785153 993.4065403779997 L 277.24385471785155 993.4065403779997" stroke-miterlimit="10" stroke-width="1.4659797833333332" stroke-dasharray=""/><g><g><rect fill="yellow" stroke="none" x="46.42362189691406" y="989.1845186019998" width="206.1917724609375" height="17.767674974"/><text fill="black" stroke="none" font-family="sans-serif" font-size="11pt" font-style="normal" font-weight="normal" text-decoration="normal" x="46.42362189691406" y="1002.2024190779998" text-anchor="start" dominant-baseline="alphabetic" xml:space="preserve">Leader votes to defund V with L</text></g><g><g><rect fill="white" stroke="none" x="306.8566463411849" y="995.1657161179998" width="124.26101721023437" height="22.86928462"/></g><text fill="black" stroke="none" font-family="sans-serif" font-size="11pt" font-style="normal" font-weight="normal" text-decoration="normal" x="309.4954099511849" y="1010.9982977779997" text-anchor="start" dominant-baseline="alphabetic" xml:space="preserve">[3a]: L.defundV(A)</text></g><g><path fill="none" stroke="black" paint-order="fill stroke markers" d=" M 286.03973341785155 1018.0350007379998 L 437.45069621541927 1018.0350007379998" stroke-miterlimit="10" stroke-width="1.4659797833333332" stroke-dasharray=""/><g transform="translate(451.9345764747526,1018.0350007379998) translate(-451.9345764747526,-1018.0350007379998)"><path fill="black" stroke="none" paint-order="stroke fill markers" d=" M 437.27477864141923 1010.7051018213331 L 451.9345764747526 1018.0350007379998 L 437.27477864141923 1025.3648996546665 Z"/></g></g><g><g><rect fill="white" stroke="none" x="472.7514893980859" y="995.1657161179998" width="127.05986059402343" height="22.86928462"/></g><text fill="black" stroke="none" font-family="sans-serif" font-size="11pt" font-style="normal" font-weight="normal" text-decoration="normal" x="475.3902530080859" y="1010.9982977779997" text-anchor="start" dominant-baseline="alphabetic" xml:space="preserve">[3b]: L'.defundV(B)</text></g><g><path fill="none" stroke="black" paint-order="fill stroke markers" d=" M 620.6282629154427 1018.0350007379998 L 466.4184567340859 1018.0350007379998" stroke-miterlimit="10" stroke-width="1.4659797833333332" stroke-dasharray=""/><g transform="translate(451.9345764747526,1018.0350007379998) translate(-451.9345764747526,-1018.0350007379998)"><path fill="black" stroke="none" paint-order="stroke fill markers" d=" M 466.59437430808595 1010.7051018213331 L 451.9345764747526 1018.0350007379998 L 466.59437430808595 1025.3648996546665 Z"/></g></g><path fill="white" stroke="black" paint-order="fill stroke markers" d=" M 620.6282629154427 997.8044797279998 L 629.4241416154427 997.8044797279998 M 629.4241416154427 977.5739587179997 L 871.8390965201693 977.5739587179997 L 887.6716781801692 993.4065403779997 L 887.6716781801692 1018.0350007379998 L 629.4241416154427 1018.0350007379998 L 629.4241416154427 977.5739587179997 M 871.8390965201693 977.5739587179997 L 871.8390965201693 993.4065403779997 L 887.6716781801692 993.4065403779997" stroke-miterlimit="10" stroke-width="1.4659797833333332" stroke-dasharray=""/><g><g><rect fill="yellow" stroke="none" x="654.0526019754427" y="989.1845186019998" width="208.99061584472656" height="17.767674974"/><text fill="black" stroke="none" font-family="sans-serif" font-size="11pt" font-style="normal" font-weight="normal" text-decoration="normal" x="654.0526019754427" y="1002.2024190779998" text-anchor="start" dominant-baseline="alphabetic" xml:space="preserve">Leader votes to defund V with L'</text></g><path fill="white" stroke="black" paint-order="fill stroke markers" d=" M 270.20715175785153 1044.4226368379998 L 620.6282629154427 1044.4226368379998 L 636.4608445754427 1060.2552184979997 L 636.4608445754427 1084.8836788579997 L 270.20715175785153 1084.8836788579997 L 270.20715175785153 1044.4226368379998 M 620.6282629154427 1044.4226368379998 L 620.6282629154427 1060.2552184979997 L 636.4608445754427 1060.2552184979997" stroke-miterlimit="10" stroke-width="1.4659797833333332" stroke-dasharray=""/><g><text fill="black" stroke="none" font-family="sans-serif" font-size="11pt" font-style="normal" font-weight="normal" text-decoration="normal" x="402.3927063575651" y="1069.0510971979995" text-anchor="start" dominant-baseline="alphabetic" xml:space="preserve">End of Round 3</text></g><path fill="white" stroke="black" paint-order="fill stroke markers" d=" M 286.03973341785155 1131.5018359679996 L 277.24385471785155 1131.5018359679996 M 8.7958787 1111.2713149579997 L 261.41127305785153 1111.2713149579997 L 277.24385471785155 1127.1038966179997 L 277.24385471785155 1151.7323569779996 L 8.7958787 1151.7323569779996 L 8.7958787 1111.2713149579997 M 261.41127305785153 1111.2713149579997 L 261.41127305785153 1127.1038966179997 L 277.24385471785155 1127.1038966179997" stroke-miterlimit="10" stroke-width="1.4659797833333332" stroke-dasharray=""/><g><g><rect fill="yellow" stroke="none" x="33.424339059999994" y="1122.8818748419994" width="219.19105529785156" height="17.767674974"/><text fill="black" stroke="none" font-family="sans-serif" font-size="11pt" font-style="normal" font-weight="normal" text-decoration="normal" x="33.424339059999994" y="1135.8997753179995" text-anchor="start" dominant-baseline="alphabetic" xml:space="preserve">Follower votes to defund V from L</text></g><g><g><rect fill="white" stroke="none" x="309.7091854036849" y="1128.8630723579997" width="118.55593908523437" height="22.86928462"/></g><text fill="black" stroke="none" font-family="sans-serif" font-size="11pt" font-style="normal" font-weight="normal" text-decoration="normal" x="312.3479490136849" y="1144.6956540179997" text-anchor="start" dominant-baseline="alphabetic" xml:space="preserve">[4a]: L.defundV(I)</text></g><g><path fill="none" stroke="black" paint-order="fill stroke markers" d=" M 451.9345764747526 1151.7323569779996 L 300.52361367718487 1151.7323569779996" stroke-miterlimit="10" stroke-width="1.4659797833333332" stroke-dasharray=""/><g transform="translate(286.03973341785155,1151.7323569779996) translate(-286.03973341785155,-1151.7323569779996)"><path fill="black" stroke="none" paint-order="stroke fill markers" d=" M 300.6995312511849 1144.402458061333 L 286.03973341785155 1151.7323569779996 L 300.6995312511849 1159.0622558946664 Z"/></g></g><path fill="white" stroke="black" paint-order="fill stroke markers" d=" M 620.6282629154427 1131.5018359679996 L 629.4241416154427 1131.5018359679996 M 629.4241416154427 1111.2713149579997 L 884.8383793570833 1111.2713149579997 L 900.6709610170833 1127.1038966179997 L 900.6709610170833 1151.7323569779996 L 629.4241416154427 1151.7323569779996 L 629.4241416154427 1111.2713149579997 M 884.8383793570833 1111.2713149579997 L 884.8383793570833 1127.1038966179997 L 900.6709610170833 1127.1038966179997" stroke-miterlimit="10" stroke-width="1.4659797833333332" stroke-dasharray=""/><g><g><rect fill="yellow" stroke="none" x="654.0526019754427" y="1122.8818748419994" width="221.98989868164062" height="17.767674974"/><text fill="black" stroke="none" font-family="sans-serif" font-size="11pt" font-style="normal" font-weight="normal" text-decoration="normal" x="654.0526019754427" y="1135.8997753179995" text-anchor="start" dominant-baseline="alphabetic" xml:space="preserve">Follower votes to defund V from L'</text></g><g><g><rect fill="white" stroke="none" x="475.6040284605859" y="1128.8630723579997" width="121.35478246902343" height="22.86928462"/></g><text fill="black" stroke="none" font-family="sans-serif" font-size="11pt" font-style="normal" font-weight="normal" text-decoration="normal" x="478.2427920705859" y="1144.6956540179997" text-anchor="start" dominant-baseline="alphabetic" xml:space="preserve">[4b]: L'.defundV(I)</text></g><g><path fill="none" stroke="black" paint-order="fill stroke markers" d=" M 451.9345764747526 1151.7323569779996 L 606.1443826561094 1151.7323569779996" stroke-miterlimit="10" stroke-width="1.4659797833333332" stroke-dasharray=""/><g transform="translate(620.6282629154427,1151.7323569779996) translate(-620.6282629154427,-1151.7323569779996)"><path fill="black" stroke="none" paint-order="stroke fill markers" d=" M 605.9684650821094 1144.402458061333 L 620.6282629154427 1151.7323569779996 L 605.9684650821094 1159.0622558946664 Z"/></g></g><path fill="white" stroke="black" paint-order="fill stroke markers" d=" M 270.20715175785153 1178.1199930779997 L 620.6282629154427 1178.1199930779997 L 636.4608445754427 1193.9525747379996 L 636.4608445754427 1218.5810350979996 L 270.20715175785153 1218.5810350979996 L 270.20715175785153 1178.1199930779997 M 620.6282629154427 1178.1199930779997 L 620.6282629154427 1193.9525747379996 L 636.4608445754427 1193.9525747379996" stroke-miterlimit="10" stroke-width="1.4659797833333332" stroke-dasharray=""/><g><text fill="black" stroke="none" font-family="sans-serif" font-size="11pt" font-style="normal" font-weight="normal" text-decoration="normal" x="402.3927063575651" y="1202.7484534379994" text-anchor="start" dominant-baseline="alphabetic" xml:space="preserve">End of Round 4</text></g></g></g></g></g></g></g></g></g></g></g></g></svg>