<svg version="1.1" xmlns="http://www.w3.org/2000/svg" xmlns:xlink="http://www.w3.org/1999/xlink" width="815" height="1320"><desc>title%20Virtual%20Funding%20a%20channel%20V%20with%20Ledger%20Channels%20L%2C%20L'%0A%0Aparticipant%20%22Alice%22%20as%20A%0Aparticipant%20%22Irene%22%20as%20I%0Aparticipant%20%22Bob%22%20as%20B%0A%0Anote%20left%20of%20A%20%3A%20%3Cbackground%3A%23yellow%3EAlice%20proposes%20V%0AA-%3EI%3A%200a%3A%20V.preFS(A)%0AA-%3EB%3A%200b%3A%20V.preFS(A)%0Anote%20over%20A%2CB%3A%20End%20of%20Round%200%0A%0A%0Aparallel%0Anote%20left%20of%20A%20%3A%20%3Cbackground%3A%23yellow%3EIrene%20agrees%20to%20V%0AI-%3EA%3A%201a%3A%20V.preFS(I)%0AI-%3EB%3A%201b%3A%20V.preFS(I)%0Aparallel%20off%0A%0Aparallel%20%0Anote%20right%20of%20B%20%3A%20%3Cbackground%3A%23yellow%3EBob%20agrees%20to%20V%0AB-%3EA%3A%201c%3A%20V.preFS(B)%0Aparallel%20off%0AB-%3EI%3A%201d%3A%20V.preFS(B)%0A%0A%0Anote%20over%20A%2CB%3A%20End%20of%20Round%201%0A%0Aparallel%0Anote%20left%20of%20A%20%3A%20%3Cbackground%3A%23yellow%3EIrene%20votes%20to%20fund%20V%20with%20L%0AI-%3EA%3A%202a%3A%20L.fundV(I)%0Anote%20right%20of%20B%20%3A%20%3Cbackground%3A%23yellow%3EIrene%20votes%20to%20fund%20V%20with%20L'%0AI-%3EB%3A%202b%3A%20L'.fundV(I)%0Aparallel%20off%0A%0Aparallel%20%0Anote%20left%20of%20A%20%3A%20%3Cbackground%3A%23yellow%3EAlice%20votes%20to%20fund%20V%20with%20L%0AA-%3EI%3A%202c%3A%20L.fundV(A)%0AB-%3EI%3A%202d%3A%20L'.fundV(B)%0Anote%20right%20of%20B%20%3A%20%3Cbackground%3A%23yellow%3EBob%20votes%20to%20fund%20V%20with%20L'%0Aparallel%20off%0A%0Anote%20over%20A%2CB%3A%20End%20of%20Round%202%0A%0Aparallel%0Anote%20left%20of%20A%20%3A%20%3Cbackground%3A%23yellow%3EIrene%20votes%20to%20activate%20V%0AI-%3EA%3A%203a%3A%20V.postFund(I)%20%0AI-%3EB%3A%203b%3A%20V.postFund(I)%0Aparallel%20off%0A%0Anote%20left%20of%20A%20%3A%20%3Cbackground%3A%23yellow%3EAlice%20votes%20to%20activate%20V%0AA-%3EI%3A%203c%3A%20V.postFund(A)%0AA-%3EB%3A%203d%3A%20V.postFund(A)%0A%0Anote%20right%20of%20B%20%3A%20%3Cbackground%3A%23yellow%3EBob%20votes%20to%20activate%20V%0AB-%3EA%3A%203e%3A%20V.postFund(B)%0AB-%3EI%3A%203f%3A%20V.postFund(B)%0A%0Anote%20over%20A%2CB%3A%20End%20of%20Round%203%20-%20Funded!</desc><defs/><g><g/><g/><g/><g/><g/><g/><g/><g/><g/><g/><g/><g/><g/><g/><g/><g/><g/><g/><g/><g/><g/><g/><g/><g/><g/><g/><g/><g/><g/><g/><g/><g/><g/><g><rect fill="white" stroke="none" x="0" y="0" width="815" height="1320"/></g><g><text fill="black" stroke="none" font-family="sans-serif" font-size="16.5pt" font-style="normal" font-weight="normal" text-decoration="normal" x="140.07309576186202" y="26.3876361" text-anchor="start" dominant-baseline="alphabetic" xml:space="preserve">Virtual Funding a channel V with Ledger Channels L, L'</text></g><g/><g><path fill="none" stroke="black" paint-order="fill stroke markers" d=" M 244.50073195300783 103.26361593799999 L 244.50073195300783 1320.6132280179993" stroke-miterlimit="10" stroke-width="1.4659797833333332" stroke-dasharray="13.532121076923076,5.863919133333333"/><path fill="none" stroke="black" paint-order="fill stroke markers" d=" M 408.2123169532682 103.26361593799999 L 408.2123169532682 1320.6132280179993" stroke-miterlimit="10" stroke-width="1.4659797833333332" stroke-dasharray="13.532121076923076,5.863919133333333"/><path fill="none" stroke="black" paint-order="fill stroke markers" d=" M 568.6669286869271 103.26361593799999 L 568.6669286869271 1320.6132280179993" stroke-miterlimit="10" stroke-width="1.4659797833333332" stroke-dasharray="13.532121076923076,5.863919133333333"/></g><g><path fill="none" stroke="none"/><g><path fill="white" stroke="black" paint-order="fill stroke markers" d=" M 209.5260714142422 55.94178853199999 L 279.47539249177345 55.94178853199999 L 279.47539249177345 103.26361593799999 L 209.5260714142422 103.26361593799999 L 209.5260714142422 55.94178853199999 Z" stroke-miterlimit="10" stroke-width="2.814681184" stroke-dasharray=""/></g><g><text fill="black" stroke="none" font-family="sans-serif" font-size="11pt" font-style="normal" font-weight="normal" text-decoration="normal" x="228.6131281932422" y="85.67185853800001" text-anchor="start" dominant-baseline="alphabetic" xml:space="preserve">Alice</text></g><path fill="none" stroke="none"/><g><path fill="white" stroke="black" paint-order="fill stroke markers" d=" M 372.4180381894049 55.94178853199999 L 444.00659571713146 55.94178853199999 L 444.00659571713146 103.26361593799999 L 372.4180381894049 103.26361593799999 L 372.4180381894049 55.94178853199999 Z" stroke-miterlimit="10" stroke-width="2.814681184" stroke-dasharray=""/></g><g><text fill="black" stroke="none" font-family="sans-serif" font-size="11pt" font-style="normal" font-weight="normal" text-decoration="normal" x="391.50509496840493" y="85.67185853800001" text-anchor="start" dominant-baseline="alphabetic" xml:space="preserve">Irene</text></g><path fill="none" stroke="none"/><g><path fill="white" stroke="black" paint-order="fill stroke markers" d=" M 536.5376432091966 55.94178853199999 L 600.7962141646576 55.94178853199999 L 600.7962141646576 103.26361593799999 L 536.5376432091966 103.26361593799999 L 536.5376432091966 55.94178853199999 Z" stroke-miterlimit="10" stroke-width="2.814681184" stroke-dasharray=""/></g><g><text fill="black" stroke="none" font-family="sans-serif" font-size="11pt" font-style="normal" font-weight="normal" text-decoration="normal" x="555.6246999881967" y="85.67185853800001" text-anchor="start" dominant-baseline="alphabetic" xml:space="preserve">Bob</text></g></g><g><path fill="white" stroke="black" paint-order="fill stroke markers" d=" M 244.50073195300783 158.677651748 L 235.70485325300783 158.677651748 M 76.44083719609375 138.447130738 L 219.87227159300784 138.447130738 L 235.70485325300783 154.279712398 L 235.70485325300783 178.90817275799998 L 76.44083719609375 178.90817275799998 L 76.44083719609375 138.447130738 M 219.87227159300784 138.447130738 L 219.87227159300784 154.279712398 L 235.70485325300783 154.279712398" stroke-miterlimit="10" stroke-width="1.4659797833333332" stroke-dasharray=""/><g><g><rect fill="yellow" stroke="none" x="101.06929755609377" y="150.05769062200002" width="110.00709533691406" height="17.767674974"/><text fill="black" stroke="none" font-family="sans-serif" font-size="11pt" font-style="normal" font-weight="normal" text-decoration="normal" x="101.06929755609377" y="163.07559109800002" text-anchor="start" dominant-baseline="alphabetic" xml:space="preserve">Alice proposes V</text></g><g><g><rect fill="white" stroke="none" x="275.5073345125716" y="205.29580885799996" width="101.69837988113281" height="22.86928462"/></g><text fill="black" stroke="none" font-family="sans-serif" font-size="11pt" font-style="normal" font-weight="normal" text-decoration="normal" x="278.14609812257163" y="221.12839051799997" text-anchor="start" dominant-baseline="alphabetic" xml:space="preserve">0a: V.preFS(A)</text></g><g><path fill="none" stroke="black" paint-order="fill stroke markers" d=" M 244.50073195300783 228.16509347799996 L 393.7284366939349 228.16509347799996" stroke-miterlimit="10" stroke-width="1.4659797833333332" stroke-dasharray=""/><g transform="translate(408.2123169532682,228.16509347799996) translate(-408.2123169532682,-228.16509347799996)"><path fill="black" stroke="none" paint-order="stroke fill markers" d=" M 393.55251911993486 220.83519456133328 L 408.2123169532682 228.16509347799996 L 393.55251911993486 235.49499239466664 Z"/></g></g><g><g><rect fill="white" stroke="none" x="355.734640379401" y="254.55272957799994" width="101.69837988113281" height="22.86928462"/></g><text fill="black" stroke="none" font-family="sans-serif" font-size="11pt" font-style="normal" font-weight="normal" text-decoration="normal" x="358.373403989401" y="270.38531123799993" text-anchor="start" dominant-baseline="alphabetic" xml:space="preserve">0b: V.preFS(A)</text></g><g><path fill="none" stroke="black" paint-order="fill stroke markers" d=" M 244.50073195300783 277.42201419799994 L 554.1830484275938 277.42201419799994" stroke-miterlimit="10" stroke-width="1.4659797833333332" stroke-dasharray=""/><g transform="translate(568.6669286869271,277.42201419799994) translate(-568.6669286869271,-277.42201419799994)"><path fill="black" stroke="none" paint-order="stroke fill markers" d=" M 554.0071308535938 270.0921152813333 L 568.6669286869271 277.42201419799994 L 554.0071308535938 284.7519131146666 Z"/></g></g><path fill="white" stroke="black" paint-order="fill stroke markers" d=" M 228.66815029300784 303.80965029799995 L 568.6669286869271 303.80965029799995 L 584.4995103469271 319.64223195799997 L 584.4995103469271 344.27069231799993 L 228.66815029300784 344.27069231799993 L 228.66815029300784 303.80965029799995 M 568.6669286869271 303.80965029799995 L 568.6669286869271 319.64223195799997 L 584.4995103469271 319.64223195799997" stroke-miterlimit="10" stroke-width="1.4659797833333332" stroke-dasharray=""/><g><text fill="black" stroke="none" font-family="sans-serif" font-size="11pt" font-style="normal" font-weight="normal" text-decoration="normal" x="355.6425385108854" y="328.4381106579999" text-anchor="start" dominant-baseline="alphabetic" xml:space="preserve">End of Round 0</text></g><path fill="white" stroke="black" paint-order="fill stroke markers" d=" M 244.50073195300783 390.8888494279999 L 235.70485325300783 390.8888494279999 M 73.98556070683594 370.65832841799994 L 219.87227159300784 370.65832841799994 L 235.70485325300783 386.49091007799996 L 235.70485325300783 411.1193704379999 L 73.98556070683594 411.1193704379999 L 73.98556070683594 370.65832841799994 M 219.87227159300784 370.65832841799994 L 219.87227159300784 386.49091007799996 L 235.70485325300783 386.49091007799996" stroke-miterlimit="10" stroke-width="1.4659797833333332" stroke-dasharray=""/><g><g><rect fill="yellow" stroke="none" x="98.61402106683596" y="382.2688883019999" width="112.46237182617188" height="17.767674974"/><text fill="black" stroke="none" font-family="sans-serif" font-size="11pt" font-style="normal" font-weight="normal" text-decoration="normal" x="98.61402106683596" y="395.2867887779999" text-anchor="start" dominant-baseline="alphabetic" xml:space="preserve">Irene agrees to V</text></g><g><g><rect fill="white" stroke="none" x="278.3598735750716" y="388.25008581799995" width="95.99330175613281" height="22.86928462"/></g><text fill="black" stroke="none" font-family="sans-serif" font-size="11pt" font-style="normal" font-weight="normal" text-decoration="normal" x="280.99863718507163" y="404.08266747799996" text-anchor="start" dominant-baseline="alphabetic" xml:space="preserve">1a: V.preFS(I)</text></g><g><path fill="none" stroke="black" paint-order="fill stroke markers" d=" M 408.2123169532682 411.1193704379999 L 258.9846122123412 411.1193704379999" stroke-miterlimit="10" stroke-width="1.4659797833333332" stroke-dasharray=""/><g transform="translate(244.50073195300783,411.1193704379999) translate(-244.50073195300783,-411.1193704379999)"><path fill="black" stroke="none" paint-order="stroke fill markers" d=" M 259.16052978634116 403.78947152133327 L 244.50073195300783 411.1193704379999 L 259.16052978634116 418.44926935466657 Z"/></g></g><g><g><rect fill="white" stroke="none" x="440.44297194203125" y="388.25008581799995" width="95.99330175613281" height="22.86928462"/></g><text fill="black" stroke="none" font-family="sans-serif" font-size="11pt" font-style="normal" font-weight="normal" text-decoration="normal" x="443.08173555203126" y="404.08266747799996" text-anchor="start" dominant-baseline="alphabetic" xml:space="preserve">1b: V.preFS(I)</text></g><g><path fill="none" stroke="black" paint-order="fill stroke markers" d=" M 408.2123169532682 411.1193704379999 L 554.1830484275938 411.1193704379999" stroke-miterlimit="10" stroke-width="1.4659797833333332" stroke-dasharray=""/><g transform="translate(568.6669286869271,411.1193704379999) translate(-568.6669286869271,-411.1193704379999)"><path fill="black" stroke="none" paint-order="stroke fill markers" d=" M 554.0071308535938 403.78947152133327 L 568.6669286869271 411.1193704379999 L 554.0071308535938 418.44926935466657 Z"/></g></g><path fill="white" stroke="black" paint-order="fill stroke markers" d=" M 568.6669286869271 457.7375275479999 L 577.4628073869271 457.7375275479999 M 577.4628073869271 437.5070065379999 L 716.0195317008335 437.5070065379999 L 731.8521133608334 453.33958819799994 L 731.8521133608334 477.9680485579999 L 577.4628073869271 477.9680485579999 L 577.4628073869271 437.5070065379999 M 716.0195317008335 437.5070065379999 L 716.0195317008335 453.33958819799994 L 731.8521133608334 453.33958819799994" stroke-miterlimit="10" stroke-width="1.4659797833333332" stroke-dasharray=""/><g><g><rect fill="yellow" stroke="none" x="602.0912677469271" y="449.11756642199987" width="105.13238525390625" height="17.767674974"/><text fill="black" stroke="none" font-family="sans-serif" font-size="11pt" font-style="normal" font-weight="normal" text-decoration="normal" x="602.0912677469271" y="462.1354668979999" text-anchor="start" dominant-baseline="alphabetic" xml:space="preserve">Bob agrees to V</text></g><g><g><rect fill="white" stroke="none" x="356.1462385849674" y="455.09876393799993" width="100.87518347" height="22.86928462"/></g><text fill="black" stroke="none" font-family="sans-serif" font-size="11pt" font-style="normal" font-weight="normal" text-decoration="normal" x="358.78500219496743" y="470.93134559799995" text-anchor="start" dominant-baseline="alphabetic" xml:space="preserve">1c: V.preFS(B)</text></g><g><path fill="none" stroke="black" paint-order="fill stroke markers" d=" M 568.6669286869271 477.9680485579999 L 258.9846122123412 477.9680485579999" stroke-miterlimit="10" stroke-width="1.4659797833333332" stroke-dasharray=""/><g transform="translate(244.50073195300783,477.9680485579999) translate(-244.50073195300783,-477.9680485579999)"><path fill="black" stroke="none" paint-order="stroke fill markers" d=" M 259.16052978634116 470.63814964133326 L 244.50073195300783 477.9680485579999 L 259.16052978634116 485.29794747466656 Z"/></g></g><g><g><rect fill="white" stroke="none" x="437.59043287953125" y="504.3556846579999" width="101.69837988113281" height="22.86928462"/></g><text fill="black" stroke="none" font-family="sans-serif" font-size="11pt" font-style="normal" font-weight="normal" text-decoration="normal" x="440.22919648953126" y="520.1882663179999" text-anchor="start" dominant-baseline="alphabetic" xml:space="preserve">1d: V.preFS(B)</text></g><g><path fill="none" stroke="black" paint-order="fill stroke markers" d=" M 568.6669286869271 527.2249692779999 L 422.69619721260153 527.2249692779999" stroke-miterlimit="10" stroke-width="1.4659797833333332" stroke-dasharray=""/><g transform="translate(408.2123169532682,527.2249692779999) translate(-408.2123169532682,-527.2249692779999)"><path fill="black" stroke="none" paint-order="stroke fill markers" d=" M 422.87211478660157 519.8950703613332 L 408.2123169532682 527.2249692779999 L 422.87211478660157 534.5548681946666 Z"/></g></g><path fill="white" stroke="black" paint-order="fill stroke markers" d=" M 228.66815029300784 553.6126053779998 L 568.6669286869271 553.6126053779998 L 584.4995103469271 569.4451870379997 L 584.4995103469271 594.0736473979998 L 228.66815029300784 594.0736473979998 L 228.66815029300784 553.6126053779998 M 568.6669286869271 553.6126053779998 L 568.6669286869271 569.4451870379997 L 584.4995103469271 569.4451870379997" stroke-miterlimit="10" stroke-width="1.4659797833333332" stroke-dasharray=""/><g><text fill="black" stroke="none" font-family="sans-serif" font-size="11pt" font-style="normal" font-weight="normal" text-decoration="normal" x="355.6425385108854" y="578.2410657379999" text-anchor="start" dominant-baseline="alphabetic" xml:space="preserve">End of Round 1</text></g><path fill="white" stroke="black" paint-order="fill stroke markers" d=" M 244.50073195300783 640.6918045079998 L 235.70485325300783 640.6918045079998 M 8.7958787 620.4612834979997 L 219.87227159300784 620.4612834979997 L 235.70485325300783 636.2938651579997 L 235.70485325300783 660.9223255179998 L 8.7958787 660.9223255179998 L 8.7958787 620.4612834979997 M 219.87227159300784 620.4612834979997 L 219.87227159300784 636.2938651579997 L 235.70485325300783 636.2938651579997" stroke-miterlimit="10" stroke-width="1.4659797833333332" stroke-dasharray=""/><g><g><rect fill="yellow" stroke="none" x="33.42433906000001" y="632.0718433819998" width="177.6520538330078" height="17.767674974"/><text fill="black" stroke="none" font-family="sans-serif" font-size="11pt" font-style="normal" font-weight="normal" text-decoration="normal" x="33.42433906000001" y="645.0897438579998" text-anchor="start" dominant-baseline="alphabetic" xml:space="preserve">Irene votes to fund V with L</text></g><g><g><rect fill="white" stroke="none" x="279.30475119958334" y="638.0530408979997" width="94.10354650710937" height="22.86928462"/></g><text fill="black" stroke="none" font-family="sans-serif" font-size="11pt" font-style="normal" font-weight="normal" text-decoration="normal" x="281.94351480958335" y="653.8856225579997" text-anchor="start" dominant-baseline="alphabetic" xml:space="preserve">2a: L.fundV(I)</text></g><g><path fill="none" stroke="black" paint-order="fill stroke markers" d=" M 408.2123169532682 660.9223255179998 L 258.9846122123412 660.9223255179998" stroke-miterlimit="10" stroke-width="1.4659797833333332" stroke-dasharray=""/><g transform="translate(244.50073195300783,660.9223255179998) translate(-244.50073195300783,-660.9223255179998)"><path fill="black" stroke="none" paint-order="stroke fill markers" d=" M 259.16052978634116 653.592426601333 L 244.50073195300783 660.9223255179998 L 259.16052978634116 668.2522244346665 Z"/></g></g><path fill="white" stroke="black" paint-order="fill stroke markers" d=" M 568.6669286869271 640.6918045079998 L 577.4628073869271 640.6918045079998 M 577.4628073869271 620.4612834979997 L 791.3380436637241 620.4612834979997 L 807.170625323724 636.2938651579997 L 807.170625323724 660.9223255179998 L 577.4628073869271 660.9223255179998 L 577.4628073869271 620.4612834979997 M 791.3380436637241 620.4612834979997 L 791.3380436637241 636.2938651579997 L 807.170625323724 636.2938651579997" stroke-miterlimit="10" stroke-width="1.4659797833333332" stroke-dasharray=""/><g><g><rect fill="yellow" stroke="none" x="602.0912677469271" y="632.0718433819998" width="180.45089721679688" height="17.767674974"/><text fill="black" stroke="none" font-family="sans-serif" font-size="11pt" font-style="normal" font-weight="normal" text-decoration="normal" x="602.0912677469271" y="645.0897438579998" text-anchor="start" dominant-baseline="alphabetic" xml:space="preserve">Irene votes to fund V with L'</text></g><g><g><rect fill="white" stroke="none" x="439.98842787464844" y="638.0530408979997" width="96.90238989089843" height="22.86928462"/></g><text fill="black" stroke="none" font-family="sans-serif" font-size="11pt" font-style="normal" font-weight="normal" text-decoration="normal" x="442.62719148464845" y="653.8856225579997" text-anchor="start" dominant-baseline="alphabetic" xml:space="preserve">2b: L'.fundV(I)</text></g><g><path fill="none" stroke="black" paint-order="fill stroke markers" d=" M 408.2123169532682 660.9223255179998 L 554.1830484275938 660.9223255179998" stroke-miterlimit="10" stroke-width="1.4659797833333332" stroke-dasharray=""/><g transform="translate(568.6669286869271,660.9223255179998) translate(-568.6669286869271,-660.9223255179998)"><path fill="black" stroke="none" paint-order="stroke fill markers" d=" M 554.0071308535938 653.592426601333 L 568.6669286869271 660.9223255179998 L 554.0071308535938 668.2522244346665 Z"/></g></g><path fill="white" stroke="black" paint-order="fill stroke markers" d=" M 244.50073195300783 707.5404826279997 L 235.70485325300783 707.5404826279997 M 10.435115150195312 687.3099616179996 L 219.87227159300784 687.3099616179996 L 235.70485325300783 703.1425432779996 L 235.70485325300783 727.7710036379997 L 10.435115150195312 727.7710036379997 L 10.435115150195312 687.3099616179996 M 219.87227159300784 687.3099616179996 L 219.87227159300784 703.1425432779996 L 235.70485325300783 703.1425432779996" stroke-miterlimit="10" stroke-width="1.4659797833333332" stroke-dasharray=""/><g><g><rect fill="yellow" stroke="none" x="35.06357551019532" y="698.9205215019997" width="176.0128173828125" height="17.767674974"/><text fill="black" stroke="none" font-family="sans-serif" font-size="11pt" font-style="normal" font-weight="normal" text-decoration="normal" x="35.06357551019532" y="711.9384219779997" text-anchor="start" dominant-baseline="alphabetic" xml:space="preserve">Alice votes to fund V with L</text></g><g><g><rect fill="white" stroke="none" x="276.86381034264974" y="704.9017190179997" width="98.98542822097656" height="22.86928462"/></g><text fill="black" stroke="none" font-family="sans-serif" font-size="11pt" font-style="normal" font-weight="normal" text-decoration="normal" x="279.50257395264975" y="720.7343006779996" text-anchor="start" dominant-baseline="alphabetic" xml:space="preserve">2c: L.fundV(A)</text></g><g><path fill="none" stroke="black" paint-order="fill stroke markers" d=" M 244.50073195300783 727.7710036379997 L 393.7284366939349 727.7710036379997" stroke-miterlimit="10" stroke-width="1.4659797833333332" stroke-dasharray=""/><g transform="translate(408.2123169532682,727.7710036379997) translate(-408.2123169532682,-727.7710036379997)"><path fill="black" stroke="none" paint-order="stroke fill markers" d=" M 393.55251911993486 720.441104721333 L 408.2123169532682 727.7710036379997 L 393.55251911993486 735.1009025546664 Z"/></g></g><g><g><rect fill="white" stroke="none" x="437.13588881214844" y="704.9017190179997" width="102.60746801589843" height="22.86928462"/></g><text fill="black" stroke="none" font-family="sans-serif" font-size="11pt" font-style="normal" font-weight="normal" text-decoration="normal" x="439.77465242214845" y="720.7343006779996" text-anchor="start" dominant-baseline="alphabetic" xml:space="preserve">2d: L'.fundV(B)</text></g><g><path fill="none" stroke="black" paint-order="fill stroke markers" d=" M 568.6669286869271 727.7710036379997 L 422.69619721260153 727.7710036379997" stroke-miterlimit="10" stroke-width="1.4659797833333332" stroke-dasharray=""/><g transform="translate(408.2123169532682,727.7710036379997) translate(-408.2123169532682,-727.7710036379997)"><path fill="black" stroke="none" paint-order="stroke fill markers" d=" M 422.87211478660157 720.441104721333 L 408.2123169532682 727.7710036379997 L 422.87211478660157 735.1009025546664 Z"/></g></g><path fill="white" stroke="black" paint-order="fill stroke markers" d=" M 568.6669286869271 707.5404826279997 L 577.4628073869271 707.5404826279997 M 577.4628073869271 687.3099616179996 L 784.0080570914585 687.3099616179996 L 799.8406387514584 703.1425432779996 L 799.8406387514584 727.7710036379997 L 577.4628073869271 727.7710036379997 L 577.4628073869271 687.3099616179996 M 784.0080570914585 687.3099616179996 L 784.0080570914585 703.1425432779996 L 799.8406387514584 703.1425432779996" stroke-miterlimit="10" stroke-width="1.4659797833333332" stroke-dasharray=""/><g><g><rect fill="yellow" stroke="none" x="602.0912677469271" y="698.9205215019997" width="173.12091064453125" height="17.767674974"/><text fill="black" stroke="none" font-family="sans-serif" font-size="11pt" font-style="normal" font-weight="normal" text-decoration="normal" x="602.0912677469271" y="711.9384219779997" text-anchor="start" dominant-baseline="alphabetic" xml:space="preserve">Bob votes to fund V with L'</text></g><path fill="white" stroke="black" paint-order="fill stroke markers" d=" M 228.66815029300784 754.1586397379996 L 568.6669286869271 754.1586397379996 L 584.4995103469271 769.9912213979995 L 584.4995103469271 794.6196817579996 L 228.66815029300784 794.6196817579996 L 228.66815029300784 754.1586397379996 M 568.6669286869271 754.1586397379996 L 568.6669286869271 769.9912213979995 L 584.4995103469271 769.9912213979995" stroke-miterlimit="10" stroke-width="1.4659797833333332" stroke-dasharray=""/><g><text fill="black" stroke="none" font-family="sans-serif" font-size="11pt" font-style="normal" font-weight="normal" text-decoration="normal" x="355.6425385108854" y="778.7871000979997" text-anchor="start" dominant-baseline="alphabetic" xml:space="preserve">End of Round 2</text></g><path fill="white" stroke="black" paint-order="fill stroke markers" d=" M 244.50073195300783 841.2378388679996 L 235.70485325300783 841.2378388679996 M 29.17527323125 821.0073178579995 L 219.87227159300784 821.0073178579995 L 235.70485325300783 836.8398995179995 L 235.70485325300783 861.4683598779995 L 29.17527323125 861.4683598779995 L 29.17527323125 821.0073178579995 M 219.87227159300784 821.0073178579995 L 219.87227159300784 836.8398995179995 L 235.70485325300783 836.8398995179995" stroke-miterlimit="10" stroke-width="1.4659797833333332" stroke-dasharray=""/><g><g><rect fill="yellow" stroke="none" x="53.80373359125002" y="832.6178777419996" width="157.2726593017578" height="17.767674974"/><text fill="black" stroke="none" font-family="sans-serif" font-size="11pt" font-style="normal" font-weight="normal" text-decoration="normal" x="53.80373359125002" y="845.6357782179996" text-anchor="start" dominant-baseline="alphabetic" xml:space="preserve">Irene votes to activate V</text></g><g><g><rect fill="white" stroke="none" x="265.7220790804427" y="838.5990752579995" width="121.26889074539062" height="22.86928462"/></g><text fill="black" stroke="none" font-family="sans-serif" font-size="11pt" font-style="normal" font-weight="normal" text-decoration="normal" x="268.3608426904427" y="854.4316569179995" text-anchor="start" dominant-baseline="alphabetic" xml:space="preserve">3a: V.postFund(I) </text></g><g><path fill="none" stroke="black" paint-order="fill stroke markers" d=" M 408.2123169532682 861.4683598779995 L 258.9846122123412 861.4683598779995" stroke-miterlimit="10" stroke-width="1.4659797833333332" stroke-dasharray=""/><g transform="translate(244.50073195300783,861.4683598779995) translate(-244.50073195300783,-861.4683598779995)"><path fill="black" stroke="none" paint-order="stroke fill markers" d=" M 259.16052978634116 854.1384609613328 L 244.50073195300783 861.4683598779995 L 259.16052978634116 868.7982587946663 Z"/></g></g><g><g><rect fill="white" stroke="none" x="429.8416841002344" y="838.5990752579995" width="117.19587743972656" height="22.86928462"/></g><text fill="black" stroke="none" font-family="sans-serif" font-size="11pt" font-style="normal" font-weight="normal" text-decoration="normal" x="432.4804477102344" y="854.4316569179995" text-anchor="start" dominant-baseline="alphabetic" xml:space="preserve">3b: V.postFund(I)</text></g><g><path fill="none" stroke="black" paint-order="fill stroke markers" d=" M 408.2123169532682 861.4683598779995 L 554.1830484275938 861.4683598779995" stroke-miterlimit="10" stroke-width="1.4659797833333332" stroke-dasharray=""/><g transform="translate(568.6669286869271,861.4683598779995) translate(-568.6669286869271,-861.4683598779995)"><path fill="black" stroke="none" paint-order="stroke fill markers" d=" M 554.0071308535938 854.1384609613328 L 568.6669286869271 861.4683598779995 L 554.0071308535938 868.7982587946663 Z"/></g></g><path fill="white" stroke="black" paint-order="fill stroke markers" d=" M 244.50073195300783 908.0865169879995 L 235.70485325300783 908.0865169879995 M 30.814509681445312 887.8559959779994 L 219.87227159300784 887.8559959779994 L 235.70485325300783 903.6885776379994 L 235.70485325300783 928.3170379979995 L 30.814509681445312 928.3170379979995 L 30.814509681445312 887.8559959779994 M 219.87227159300784 887.8559959779994 L 219.87227159300784 903.6885776379994 L 235.70485325300783 903.6885776379994" stroke-miterlimit="10" stroke-width="1.4659797833333332" stroke-dasharray=""/><g><g><rect fill="yellow" stroke="none" x="55.442970041445335" y="899.4665558619995" width="155.6334228515625" height="17.767674974"/><text fill="black" stroke="none" font-family="sans-serif" font-size="11pt" font-style="normal" font-weight="normal" text-decoration="normal" x="55.442970041445335" y="912.4844563379995" text-anchor="start" dominant-baseline="alphabetic" xml:space="preserve">Alice votes to activate V</text></g><g><g><rect fill="white" stroke="none" x="265.31764487634115" y="954.7046740979995" width="122.07775915359375" height="22.86928462"/></g><text fill="black" stroke="none" font-family="sans-serif" font-size="11pt" font-style="normal" font-weight="normal" text-decoration="normal" x="267.95640848634116" y="970.5372557579994" text-anchor="start" dominant-baseline="alphabetic" xml:space="preserve">3c: V.postFund(A)</text></g><g><path fill="none" stroke="black" paint-order="fill stroke markers" d=" M 244.50073195300783 977.5739587179995 L 393.7284366939349 977.5739587179995" stroke-miterlimit="10" stroke-width="1.4659797833333332" stroke-dasharray=""/><g transform="translate(408.2123169532682,977.5739587179995) translate(-408.2123169532682,-977.5739587179995)"><path fill="black" stroke="none" paint-order="stroke fill markers" d=" M 393.55251911993486 970.2440598013328 L 408.2123169532682 977.5739587179995 L 393.55251911993486 984.9038576346662 Z"/></g></g><g><g><rect fill="white" stroke="none" x="345.13335253760414" y="1003.9615948179995" width="122.90095556472656" height="22.86928462"/></g><text fill="black" stroke="none" font-family="sans-serif" font-size="11pt" font-style="normal" font-weight="normal" text-decoration="normal" x="347.77211614760415" y="1019.7941764779995" text-anchor="start" dominant-baseline="alphabetic" xml:space="preserve">3d: V.postFund(A)</text></g><g><path fill="none" stroke="black" paint-order="fill stroke markers" d=" M 244.50073195300783 1026.8308794379996 L 554.1830484275938 1026.8308794379996" stroke-miterlimit="10" stroke-width="1.4659797833333332" stroke-dasharray=""/><g transform="translate(568.6669286869271,1026.8308794379996) translate(-568.6669286869271,-1026.8308794379996)"><path fill="black" stroke="none" paint-order="stroke fill markers" d=" M 554.0071308535938 1019.5009805213328 L 568.6669286869271 1026.8308794379996 L 554.0071308535938 1034.1607783546663 Z"/></g></g><path fill="white" stroke="black" paint-order="fill stroke markers" d=" M 568.6669286869271 1073.4490365479994 L 577.4628073869271 1073.4490365479994 M 577.4628073869271 1053.2185155379996 L 760.8298191764194 1053.2185155379996 L 776.6624008364194 1069.0510971979995 L 776.6624008364194 1093.6795575579995 L 577.4628073869271 1093.6795575579995 L 577.4628073869271 1053.2185155379996 M 760.8298191764194 1053.2185155379996 L 760.8298191764194 1069.0510971979995 L 776.6624008364194 1069.0510971979995" stroke-miterlimit="10" stroke-width="1.4659797833333332" stroke-dasharray=""/><g><g><rect fill="yellow" stroke="none" x="602.0912677469271" y="1064.8290754219993" width="149.9426727294922" height="17.767674974"/><text fill="black" stroke="none" font-family="sans-serif" font-size="11pt" font-style="normal" font-weight="normal" text-decoration="normal" x="602.0912677469271" y="1077.8469758979993" text-anchor="start" dominant-baseline="alphabetic" xml:space="preserve">Bob votes to activate V</text></g><g><g><rect fill="white" stroke="none" x="345.13335253760414" y="1120.0671936579995" width="122.90095556472656" height="22.86928462"/></g><text fill="black" stroke="none" font-family="sans-serif" font-size="11pt" font-style="normal" font-weight="normal" text-decoration="normal" x="347.77211614760415" y="1135.8997753179995" text-anchor="start" dominant-baseline="alphabetic" xml:space="preserve">3e: V.postFund(B)</text></g><g><path fill="none" stroke="black" paint-order="fill stroke markers" d=" M 568.6669286869271 1142.9364782779994 L 258.9846122123412 1142.9364782779994" stroke-miterlimit="10" stroke-width="1.4659797833333332" stroke-dasharray=""/><g transform="translate(244.50073195300783,1142.9364782779994) translate(-244.50073195300783,-1142.9364782779994)"><path fill="black" stroke="none" paint-order="stroke fill markers" d=" M 259.16052978634116 1135.6065793613327 L 244.50073195300783 1142.9364782779994 L 259.16052978634116 1150.2663771946661 Z"/></g></g><g><g><rect fill="white" stroke="none" x="429.02922987660156" y="1169.3241143779994" width="118.82078588699218" height="22.86928462"/></g><text fill="black" stroke="none" font-family="sans-serif" font-size="11pt" font-style="normal" font-weight="normal" text-decoration="normal" x="431.6679934866016" y="1185.1566960379994" text-anchor="start" dominant-baseline="alphabetic" xml:space="preserve">3f: V.postFund(B)</text></g><g><path fill="none" stroke="black" paint-order="fill stroke markers" d=" M 568.6669286869271 1192.1933989979993 L 422.69619721260153 1192.1933989979993" stroke-miterlimit="10" stroke-width="1.4659797833333332" stroke-dasharray=""/><g transform="translate(408.2123169532682,1192.1933989979993) translate(-408.2123169532682,-1192.1933989979993)"><path fill="black" stroke="none" paint-order="stroke fill markers" d=" M 422.87211478660157 1184.8635000813326 L 408.2123169532682 1192.1933989979993 L 422.87211478660157 1199.523297914666 Z"/></g></g><path fill="white" stroke="black" paint-order="fill stroke markers" d=" M 228.66815029300784 1218.5810350979993 L 568.6669286869271 1218.5810350979993 L 584.4995103469271 1234.4136167579993 L 584.4995103469271 1259.0420771179993 L 228.66815029300784 1259.0420771179993 L 228.66815029300784 1218.5810350979993 M 568.6669286869271 1218.5810350979993 L 568.6669286869271 1234.4136167579993 L 584.4995103469271 1234.4136167579993" stroke-miterlimit="10" stroke-width="1.4659797833333332" stroke-dasharray=""/><g><text fill="black" stroke="none" font-family="sans-serif" font-size="11pt" font-style="normal" font-weight="normal" text-decoration="normal" x="322.23166509779946" y="1243.209495457999" text-anchor="start" dominant-baseline="alphabetic" xml:space="preserve">End of Round 3 - Funded!</text></g></g></g></g></g></g></g></g></g></g></g></g></g></svg>