<svg version="1.1" xmlns="http://www.w3.org/2000/svg" xmlns:xlink="http://www.w3.org/1999/xlink" width="815" height="1387"><desc>title%20Virtual%20Funding%20a%20channel%20V%20with%20Ledger%20Channels%20L%2C%20L'%0A%0Aparticipant%20%22Alice%22%20as%20A%0Aparticipant%20%22Irene%22%20as%20I%0Aparticipant%20%22Bob%22%20as%20B%0A%0Anote%20left%20of%20A%20%3A%20%3Cbackground%3A%23yellow%3EAlice%20proposes%20V%0AA-%3EI%3A%200a%3A%20V.preFS(A)%0AA-%3EB%3A%200b%3A%20V.preFS(A)%0Anote%20over%20A%2CB%3A%20End%20of%20Round%200%0A%0A%0Aparallel%0Anote%20left%20of%20A%20%3A%20%3Cbackground%3A%23yellow%3EIrene%20agrees%20to%20V%0AI-%3EA%3A%201a%3A%20V.preFS(I)%0AI-%3EB%3A%201b%3A%20V.preFS(I)%0Aparallel%20off%0A%0Aparallel%20%0Anote%20right%20of%20B%20%3A%20%3Cbackground%3A%23yellow%3EBob%20agrees%20to%20V%0AB-%3EA%3A%201c%3A%20V.preFS(B)%0Aparallel%20off%0AB-%3EI%3A%201d%3A%20V.preFS(B)%0A%0A%0Anote%20over%20A%2CB%3A%20End%20of%20Round%201%0A%0Aparallel%0Anote%20left%20of%20A%20%3A%20%3Cbackground%3A%23yellow%3EIrene%20votes%20to%20fund%20V%20with%20L%0A%0AI-%3EA%3A%202a%3A%20L.fundV(I)%0Anote%20right%20of%20B%20%3A%20%3Cbackground%3A%23yellow%3EIrene%20votes%20to%20fund%20V%20with%20L'%0AI-%3EB%3A%202b%3A%20L'.fundV(I)%0Aparallel%20off%0A%0Aparallel%20%0Anote%20left%20of%20A%20%3A%20%3Cbackground%3A%23yellow%3EAlice%20votes%20to%20fund%20V%20with%20L%0AA-%3EI%3A%202c%3A%20L.fundV(A)%0AB-%3EI%3A%202d%3A%20L'.fundV(B)%0Anote%20right%20of%20B%20%3A%20%3Cbackground%3A%23yellow%3EBob%20votes%20to%20fund%20V%20with%20L'%0Aparallel%20off%0A%0Anote%20over%20A%2CB%3A%20End%20of%20Round%202%0A%0Aparallel%0Anote%20left%20of%20A%20%3A%20%3Cbackground%3A%23yellow%3EIrene%20votes%20to%20activate%20V%0A%0AI-%3EA%3A%203a%3A%20V.postFund(I)%20%0AI-%3EB%3A%203b%3A%20V.postFund(I)%0A%0Aparallel%20off%0Anote%20over%20I%20%3A%20Irene%20exits%20protocol%20(see%20ADR%209)%0A%0Anote%20left%20of%20A%20%3A%20%3Cbackground%3A%23yellow%3EAlice%20votes%20to%20activate%20V%0AA-%3EI%3A%203c%3A%20V.postFund(A)%0AA-%3EB%3A%203d%3A%20V.postFund(A)%0A%0Anote%20right%20of%20B%20%3A%20%3Cbackground%3A%23yellow%3EBob%20votes%20to%20activate%20V%0AB-%3EA%3A%203e%3A%20V.postFund(B)%0AB-%3EI%3A%203f%3A%20V.postFund(B)%0A%0Anote%20over%20A%2CB%3A%20End%20of%20Round%203%20-%20Funded!</desc><defs/><g><g/><g/><g/><g/><g/><g/><g/><g/><g/><g/><g/><g/><g/><g/><g/><g/><g/><g/><g/><g/><g/><g/><g/><g/><g/><g/><g/><g/><g/><g/><g/><g/><g/><g/><g><rect fill="white" stroke="none" x="0" y="0" width="815" height="1387"/></g><g><text fill="black" stroke="none" font-family="sans-serif" font-size="16.5pt" font-style="normal" font-weight="normal" text-decoration="normal" x="140.07311102065108" y="26.3876361" text-anchor="start" dominant-baseline="alphabetic" xml:space="preserve">Virtual Funding a channel V with Ledger Channels L, L'</text></g><g/><g><path fill="none" stroke="black" paint-order="fill stroke markers" d=" M 244.50073195300783 103.26361593799999 L 244.50073195300783 1387.461906137999" stroke-miterlimit="10" stroke-width="1.4659797833333332" stroke-dasharray="13.532121076923076,5.863919133333333"/><path fill="none" stroke="black" paint-order="fill stroke markers" d=" M 408.2123322120573 103.26361593799999 L 408.2123322120573 1387.461906137999" stroke-miterlimit="10" stroke-width="1.4659797833333332" stroke-dasharray="13.532121076923076,5.863919133333333"/><path fill="none" stroke="black" paint-order="fill stroke markers" d=" M 568.6669592045052 103.26361593799999 L 568.6669592045052 1387.461906137999" stroke-miterlimit="10" stroke-width="1.4659797833333332" stroke-dasharray="13.532121076923076,5.863919133333333"/></g><g><path fill="none" stroke="none"/><g><path fill="white" stroke="black" paint-order="fill stroke markers" d=" M 209.5260714142422 55.94178853199999 L 279.47539249177345 55.94178853199999 L 279.47539249177345 103.26361593799999 L 209.5260714142422 103.26361593799999 L 209.5260714142422 55.94178853199999 Z" stroke-miterlimit="10" stroke-width="2.814681184" stroke-dasharray=""/></g><g><text fill="black" stroke="none" font-family="sans-serif" font-size="11pt" font-style="normal" font-weight="normal" text-decoration="normal" x="228.6131281932422" y="85.67185853800001" text-anchor="start" dominant-baseline="alphabetic" xml:space="preserve">Alice</text></g><path fill="none" stroke="none"/><g><path fill="white" stroke="black" paint-order="fill stroke markers" d=" M 372.418053448194 55.94178853199999 L 444.0066109759205 55.94178853199999 L 444.0066109759205 103.26361593799999 L 372.418053448194 103.26361593799999 L 372.418053448194 55.94178853199999 Z" stroke-miterlimit="10" stroke-width="2.814681184" stroke-dasharray=""/></g><g><text fill="black" stroke="none" font-family="sans-serif" font-size="11pt" font-style="normal" font-weight="normal" text-decoration="normal" x="391.505110227194" y="85.67185853800001" text-anchor="start" dominant-baseline="alphabetic" xml:space="preserve">Irene</text></g><path fill="none" stroke="none"/><g><path fill="white" stroke="black" paint-order="fill stroke markers" d=" M 536.5376737267748 55.94178853199999 L 600.7962446822357 55.94178853199999 L 600.7962446822357 103.26361593799999 L 536.5376737267748 103.26361593799999 L 536.5376737267748 55.94178853199999 Z" stroke-miterlimit="10" stroke-width="2.814681184" stroke-dasharray=""/></g><g><text fill="black" stroke="none" font-family="sans-serif" font-size="11pt" font-style="normal" font-weight="normal" text-decoration="normal" x="555.6247305057748" y="85.67185853800001" text-anchor="start" dominant-baseline="alphabetic" xml:space="preserve">Bob</text></g></g><g><path fill="white" stroke="black" paint-order="fill stroke markers" d=" M 244.50073195300783 158.677651748 L 235.70485325300783 158.677651748 M 76.44083719609375 138.447130738 L 219.87227159300784 138.447130738 L 235.70485325300783 154.279712398 L 235.70485325300783 178.90817275799998 L 76.44083719609375 178.90817275799998 L 76.44083719609375 138.447130738 M 219.87227159300784 138.447130738 L 219.87227159300784 154.279712398 L 235.70485325300783 154.279712398" stroke-miterlimit="10" stroke-width="1.4659797833333332" stroke-dasharray=""/><g><g><rect fill="yellow" stroke="none" x="101.06929755609377" y="150.05769062200002" width="110.00709533691406" height="17.767674974"/><text fill="black" stroke="none" font-family="sans-serif" font-size="11pt" font-style="normal" font-weight="normal" text-decoration="normal" x="101.06929755609377" y="163.07559109800002" text-anchor="start" dominant-baseline="alphabetic" xml:space="preserve">Alice proposes V</text></g><g><g><rect fill="white" stroke="none" x="275.5073345125716" y="205.29580885799996" width="101.69839513992187" height="22.86928462"/></g><text fill="black" stroke="none" font-family="sans-serif" font-size="11pt" font-style="normal" font-weight="normal" text-decoration="normal" x="278.14609812257163" y="221.12839051799997" text-anchor="start" dominant-baseline="alphabetic" xml:space="preserve">0a: V.preFS(A)</text></g><g><path fill="none" stroke="black" paint-order="fill stroke markers" d=" M 244.50073195300783 228.16509347799996 L 393.72845195272396 228.16509347799996" stroke-miterlimit="10" stroke-width="1.4659797833333332" stroke-dasharray=""/><g transform="translate(408.2123322120573,228.16509347799996) translate(-408.2123322120573,-228.16509347799996)"><path fill="black" stroke="none" paint-order="stroke fill markers" d=" M 393.5525343787239 220.83519456133328 L 408.2123322120573 228.16509347799996 L 393.5525343787239 235.49499239466664 Z"/></g></g><g><g><rect fill="white" stroke="none" x="355.73464800879555" y="254.55272957799994" width="101.69839513992187" height="22.86928462"/></g><text fill="black" stroke="none" font-family="sans-serif" font-size="11pt" font-style="normal" font-weight="normal" text-decoration="normal" x="358.37341161879556" y="270.38531123799993" text-anchor="start" dominant-baseline="alphabetic" xml:space="preserve">0b: V.preFS(A)</text></g><g><path fill="none" stroke="black" paint-order="fill stroke markers" d=" M 244.50073195300783 277.42201419799994 L 554.1830789451719 277.42201419799994" stroke-miterlimit="10" stroke-width="1.4659797833333332" stroke-dasharray=""/><g transform="translate(568.6669592045052,277.42201419799994) translate(-568.6669592045052,-277.42201419799994)"><path fill="black" stroke="none" paint-order="stroke fill markers" d=" M 554.007161371172 270.0921152813333 L 568.6669592045052 277.42201419799994 L 554.007161371172 284.7519131146666 Z"/></g></g><path fill="white" stroke="black" paint-order="fill stroke markers" d=" M 228.66815029300784 303.80965029799995 L 568.6669592045052 303.80965029799995 L 584.4995408645052 319.64223195799997 L 584.4995408645052 344.27069231799993 L 228.66815029300784 344.27069231799993 L 228.66815029300784 303.80965029799995 M 568.6669592045052 303.80965029799995 L 568.6669592045052 319.64223195799997 L 584.4995408645052 319.64223195799997" stroke-miterlimit="10" stroke-width="1.4659797833333332" stroke-dasharray=""/><g><text fill="black" stroke="none" font-family="sans-serif" font-size="11pt" font-style="normal" font-weight="normal" text-decoration="normal" x="355.64255376967446" y="328.4381106579999" text-anchor="start" dominant-baseline="alphabetic" xml:space="preserve">End of Round 0</text></g><path fill="white" stroke="black" paint-order="fill stroke markers" d=" M 244.50073195300783 390.8888494279999 L 235.70485325300783 390.8888494279999 M 73.98556070683594 370.65832841799994 L 219.87227159300784 370.65832841799994 L 235.70485325300783 386.49091007799996 L 235.70485325300783 411.1193704379999 L 73.98556070683594 411.1193704379999 L 73.98556070683594 370.65832841799994 M 219.87227159300784 370.65832841799994 L 219.87227159300784 386.49091007799996 L 235.70485325300783 386.49091007799996" stroke-miterlimit="10" stroke-width="1.4659797833333332" stroke-dasharray=""/><g><g><rect fill="yellow" stroke="none" x="98.61402106683596" y="382.2688883019999" width="112.46237182617188" height="17.767674974"/><text fill="black" stroke="none" font-family="sans-serif" font-size="11pt" font-style="normal" font-weight="normal" text-decoration="normal" x="98.61402106683596" y="395.2867887779999" text-anchor="start" dominant-baseline="alphabetic" xml:space="preserve">Irene agrees to V</text></g><g><g><rect fill="white" stroke="none" x="278.3598735750716" y="388.25008581799995" width="95.99331701492187" height="22.86928462"/></g><text fill="black" stroke="none" font-family="sans-serif" font-size="11pt" font-style="normal" font-weight="normal" text-decoration="normal" x="280.99863718507163" y="404.08266747799996" text-anchor="start" dominant-baseline="alphabetic" xml:space="preserve">1a: V.preFS(I)</text></g><g><path fill="none" stroke="black" paint-order="fill stroke markers" d=" M 408.2123322120573 411.1193704379999 L 258.9846122123412 411.1193704379999" stroke-miterlimit="10" stroke-width="1.4659797833333332" stroke-dasharray=""/><g transform="translate(244.50073195300783,411.1193704379999) translate(-244.50073195300783,-411.1193704379999)"><path fill="black" stroke="none" paint-order="stroke fill markers" d=" M 259.16052978634116 403.78947152133327 L 244.50073195300783 411.1193704379999 L 259.16052978634116 418.44926935466657 Z"/></g></g><g><g><rect fill="white" stroke="none" x="440.4429872008203" y="388.25008581799995" width="95.99331701492187" height="22.86928462"/></g><text fill="black" stroke="none" font-family="sans-serif" font-size="11pt" font-style="normal" font-weight="normal" text-decoration="normal" x="443.0817508108203" y="404.08266747799996" text-anchor="start" dominant-baseline="alphabetic" xml:space="preserve">1b: V.preFS(I)</text></g><g><path fill="none" stroke="black" paint-order="fill stroke markers" d=" M 408.2123322120573 411.1193704379999 L 554.1830789451719 411.1193704379999" stroke-miterlimit="10" stroke-width="1.4659797833333332" stroke-dasharray=""/><g transform="translate(568.6669592045052,411.1193704379999) translate(-568.6669592045052,-411.1193704379999)"><path fill="black" stroke="none" paint-order="stroke fill markers" d=" M 554.007161371172 403.78947152133327 L 568.6669592045052 411.1193704379999 L 554.007161371172 418.44926935466657 Z"/></g></g><path fill="white" stroke="black" paint-order="fill stroke markers" d=" M 568.6669592045052 457.7375275479999 L 577.4628379045052 457.7375275479999 M 577.4628379045052 437.5070065379999 L 716.0195622184116 437.5070065379999 L 731.8521438784115 453.33958819799994 L 731.8521438784115 477.9680485579999 L 577.4628379045052 477.9680485579999 L 577.4628379045052 437.5070065379999 M 716.0195622184116 437.5070065379999 L 716.0195622184116 453.33958819799994 L 731.8521438784115 453.33958819799994" stroke-miterlimit="10" stroke-width="1.4659797833333332" stroke-dasharray=""/><g><g><rect fill="yellow" stroke="none" x="602.0912982645052" y="449.11756642199987" width="105.13238525390625" height="17.767674974"/><text fill="black" stroke="none" font-family="sans-serif" font-size="11pt" font-style="normal" font-weight="normal" text-decoration="normal" x="602.0912982645052" y="462.1354668979999" text-anchor="start" dominant-baseline="alphabetic" xml:space="preserve">Bob agrees to V</text></g><g><g><rect fill="white" stroke="none" x="356.14624621436195" y="455.09876393799993" width="100.87519872878906" height="22.86928462"/></g><text fill="black" stroke="none" font-family="sans-serif" font-size="11pt" font-style="normal" font-weight="normal" text-decoration="normal" x="358.78500982436196" y="470.93134559799995" text-anchor="start" dominant-baseline="alphabetic" xml:space="preserve">1c: V.preFS(B)</text></g><g><path fill="none" stroke="black" paint-order="fill stroke markers" d=" M 568.6669592045052 477.9680485579999 L 258.9846122123412 477.9680485579999" stroke-miterlimit="10" stroke-width="1.4659797833333332" stroke-dasharray=""/><g transform="translate(244.50073195300783,477.9680485579999) translate(-244.50073195300783,-477.9680485579999)"><path fill="black" stroke="none" paint-order="stroke fill markers" d=" M 259.16052978634116 470.63814964133326 L 244.50073195300783 477.9680485579999 L 259.16052978634116 485.29794747466656 Z"/></g></g><g><g><rect fill="white" stroke="none" x="437.5904481383203" y="504.3556846579999" width="101.69839513992187" height="22.86928462"/></g><text fill="black" stroke="none" font-family="sans-serif" font-size="11pt" font-style="normal" font-weight="normal" text-decoration="normal" x="440.2292117483203" y="520.1882663179999" text-anchor="start" dominant-baseline="alphabetic" xml:space="preserve">1d: V.preFS(B)</text></g><g><path fill="none" stroke="black" paint-order="fill stroke markers" d=" M 568.6669592045052 527.2249692779999 L 422.6962124713906 527.2249692779999" stroke-miterlimit="10" stroke-width="1.4659797833333332" stroke-dasharray=""/><g transform="translate(408.2123322120573,527.2249692779999) translate(-408.2123322120573,-527.2249692779999)"><path fill="black" stroke="none" paint-order="stroke fill markers" d=" M 422.87213004539063 519.8950703613332 L 408.2123322120573 527.2249692779999 L 422.87213004539063 534.5548681946666 Z"/></g></g><path fill="white" stroke="black" paint-order="fill stroke markers" d=" M 228.66815029300784 553.6126053779998 L 568.6669592045052 553.6126053779998 L 584.4995408645052 569.4451870379997 L 584.4995408645052 594.0736473979998 L 228.66815029300784 594.0736473979998 L 228.66815029300784 553.6126053779998 M 568.6669592045052 553.6126053779998 L 568.6669592045052 569.4451870379997 L 584.4995408645052 569.4451870379997" stroke-miterlimit="10" stroke-width="1.4659797833333332" stroke-dasharray=""/><g><text fill="black" stroke="none" font-family="sans-serif" font-size="11pt" font-style="normal" font-weight="normal" text-decoration="normal" x="355.64255376967446" y="578.2410657379999" text-anchor="start" dominant-baseline="alphabetic" xml:space="preserve">End of Round 1</text></g><path fill="white" stroke="black" paint-order="fill stroke markers" d=" M 244.50073195300783 640.6918045079998 L 235.70485325300783 640.6918045079998 M 8.7958787 620.4612834979997 L 219.87227159300784 620.4612834979997 L 235.70485325300783 636.2938651579997 L 235.70485325300783 660.9223255179998 L 8.7958787 660.9223255179998 L 8.7958787 620.4612834979997 M 219.87227159300784 620.4612834979997 L 219.87227159300784 636.2938651579997 L 235.70485325300783 636.2938651579997" stroke-miterlimit="10" stroke-width="1.4659797833333332" stroke-dasharray=""/><g><g><rect fill="yellow" stroke="none" x="33.42433906000001" y="632.0718433819998" width="177.6520538330078" height="17.767674974"/><text fill="black" stroke="none" font-family="sans-serif" font-size="11pt" font-style="normal" font-weight="normal" text-decoration="normal" x="33.42433906000001" y="645.0897438579998" text-anchor="start" dominant-baseline="alphabetic" xml:space="preserve">Irene votes to fund V with L</text></g><g><g><rect fill="white" stroke="none" x="279.30475882897787" y="638.0530408979997" width="94.10354650710937" height="22.86928462"/></g><text fill="black" stroke="none" font-family="sans-serif" font-size="11pt" font-style="normal" font-weight="normal" text-decoration="normal" x="281.9435224389779" y="653.8856225579997" text-anchor="start" dominant-baseline="alphabetic" xml:space="preserve">2a: L.fundV(I)</text></g><g><path fill="none" stroke="black" paint-order="fill stroke markers" d=" M 408.2123322120573 660.9223255179998 L 258.9846122123412 660.9223255179998" stroke-miterlimit="10" stroke-width="1.4659797833333332" stroke-dasharray=""/><g transform="translate(244.50073195300783,660.9223255179998) translate(-244.50073195300783,-660.9223255179998)"><path fill="black" stroke="none" paint-order="stroke fill markers" d=" M 259.16052978634116 653.592426601333 L 244.50073195300783 660.9223255179998 L 259.16052978634116 668.2522244346665 Z"/></g></g><path fill="white" stroke="black" paint-order="fill stroke markers" d=" M 568.6669592045052 640.6918045079998 L 577.4628379045052 640.6918045079998 M 577.4628379045052 620.4612834979997 L 791.3380741813022 620.4612834979997 L 807.1706558413022 636.2938651579997 L 807.1706558413022 660.9223255179998 L 577.4628379045052 660.9223255179998 L 577.4628379045052 620.4612834979997 M 791.3380741813022 620.4612834979997 L 791.3380741813022 636.2938651579997 L 807.1706558413022 636.2938651579997" stroke-miterlimit="10" stroke-width="1.4659797833333332" stroke-dasharray=""/><g><g><rect fill="yellow" stroke="none" x="602.0912982645052" y="632.0718433819998" width="180.45089721679688" height="17.767674974"/><text fill="black" stroke="none" font-family="sans-serif" font-size="11pt" font-style="normal" font-weight="normal" text-decoration="normal" x="602.0912982645052" y="645.0897438579998" text-anchor="start" dominant-baseline="alphabetic" xml:space="preserve">Irene votes to fund V with L'</text></g><g><g><rect fill="white" stroke="none" x="439.98845076283203" y="638.0530408979997" width="96.90238989089843" height="22.86928462"/></g><text fill="black" stroke="none" font-family="sans-serif" font-size="11pt" font-style="normal" font-weight="normal" text-decoration="normal" x="442.62721437283204" y="653.8856225579997" text-anchor="start" dominant-baseline="alphabetic" xml:space="preserve">2b: L'.fundV(I)</text></g><g><path fill="none" stroke="black" paint-order="fill stroke markers" d=" M 408.2123322120573 660.9223255179998 L 554.1830789451719 660.9223255179998" stroke-miterlimit="10" stroke-width="1.4659797833333332" stroke-dasharray=""/><g transform="translate(568.6669592045052,660.9223255179998) translate(-568.6669592045052,-660.9223255179998)"><path fill="black" stroke="none" paint-order="stroke fill markers" d=" M 554.007161371172 653.592426601333 L 568.6669592045052 660.9223255179998 L 554.007161371172 668.2522244346665 Z"/></g></g><path fill="white" stroke="black" paint-order="fill stroke markers" d=" M 244.50073195300783 707.5404826279997 L 235.70485325300783 707.5404826279997 M 10.435115150195312 687.3099616179996 L 219.87227159300784 687.3099616179996 L 235.70485325300783 703.1425432779996 L 235.70485325300783 727.7710036379997 L 10.435115150195312 727.7710036379997 L 10.435115150195312 687.3099616179996 M 219.87227159300784 687.3099616179996 L 219.87227159300784 703.1425432779996 L 235.70485325300783 703.1425432779996" stroke-miterlimit="10" stroke-width="1.4659797833333332" stroke-dasharray=""/><g><g><rect fill="yellow" stroke="none" x="35.06357551019532" y="698.9205215019997" width="176.0128173828125" height="17.767674974"/><text fill="black" stroke="none" font-family="sans-serif" font-size="11pt" font-style="normal" font-weight="normal" text-decoration="normal" x="35.06357551019532" y="711.9384219779997" text-anchor="start" dominant-baseline="alphabetic" xml:space="preserve">Alice votes to fund V with L</text></g><g><g><rect fill="white" stroke="none" x="276.8638179720443" y="704.9017190179997" width="98.98542822097656" height="22.86928462"/></g><text fill="black" stroke="none" font-family="sans-serif" font-size="11pt" font-style="normal" font-weight="normal" text-decoration="normal" x="279.5025815820443" y="720.7343006779996" text-anchor="start" dominant-baseline="alphabetic" xml:space="preserve">2c: L.fundV(A)</text></g><g><path fill="none" stroke="black" paint-order="fill stroke markers" d=" M 244.50073195300783 727.7710036379997 L 393.72845195272396 727.7710036379997" stroke-miterlimit="10" stroke-width="1.4659797833333332" stroke-dasharray=""/><g transform="translate(408.2123322120573,727.7710036379997) translate(-408.2123322120573,-727.7710036379997)"><path fill="black" stroke="none" paint-order="stroke fill markers" d=" M 393.5525343787239 720.441104721333 L 408.2123322120573 727.7710036379997 L 393.5525343787239 735.1009025546664 Z"/></g></g><g><g><rect fill="white" stroke="none" x="437.13591170033203" y="704.9017190179997" width="102.60746801589843" height="22.86928462"/></g><text fill="black" stroke="none" font-family="sans-serif" font-size="11pt" font-style="normal" font-weight="normal" text-decoration="normal" x="439.77467531033204" y="720.7343006779996" text-anchor="start" dominant-baseline="alphabetic" xml:space="preserve">2d: L'.fundV(B)</text></g><g><path fill="none" stroke="black" paint-order="fill stroke markers" d=" M 568.6669592045052 727.7710036379997 L 422.6962124713906 727.7710036379997" stroke-miterlimit="10" stroke-width="1.4659797833333332" stroke-dasharray=""/><g transform="translate(408.2123322120573,727.7710036379997) translate(-408.2123322120573,-727.7710036379997)"><path fill="black" stroke="none" paint-order="stroke fill markers" d=" M 422.87213004539063 720.441104721333 L 408.2123322120573 727.7710036379997 L 422.87213004539063 735.1009025546664 Z"/></g></g><path fill="white" stroke="black" paint-order="fill stroke markers" d=" M 568.6669592045052 707.5404826279997 L 577.4628379045052 707.5404826279997 M 577.4628379045052 687.3099616179996 L 784.0080876090366 687.3099616179996 L 799.8406692690365 703.1425432779996 L 799.8406692690365 727.7710036379997 L 577.4628379045052 727.7710036379997 L 577.4628379045052 687.3099616179996 M 784.0080876090366 687.3099616179996 L 784.0080876090366 703.1425432779996 L 799.8406692690365 703.1425432779996" stroke-miterlimit="10" stroke-width="1.4659797833333332" stroke-dasharray=""/><g><g><rect fill="yellow" stroke="none" x="602.0912982645052" y="698.9205215019997" width="173.12091064453125" height="17.767674974"/><text fill="black" stroke="none" font-family="sans-serif" font-size="11pt" font-style="normal" font-weight="normal" text-decoration="normal" x="602.0912982645052" y="711.9384219779997" text-anchor="start" dominant-baseline="alphabetic" xml:space="preserve">Bob votes to fund V with L'</text></g><path fill="white" stroke="black" paint-order="fill stroke markers" d=" M 228.66815029300784 754.1586397379996 L 568.6669592045052 754.1586397379996 L 584.4995408645052 769.9912213979995 L 584.4995408645052 794.6196817579996 L 228.66815029300784 794.6196817579996 L 228.66815029300784 754.1586397379996 M 568.6669592045052 754.1586397379996 L 568.6669592045052 769.9912213979995 L 584.4995408645052 769.9912213979995" stroke-miterlimit="10" stroke-width="1.4659797833333332" stroke-dasharray=""/><g><text fill="black" stroke="none" font-family="sans-serif" font-size="11pt" font-style="normal" font-weight="normal" text-decoration="normal" x="355.64255376967446" y="778.7871000979997" text-anchor="start" dominant-baseline="alphabetic" xml:space="preserve">End of Round 2</text></g><path fill="white" stroke="black" paint-order="fill stroke markers" d=" M 244.50073195300783 841.2378388679996 L 235.70485325300783 841.2378388679996 M 29.17527323125 821.0073178579995 L 219.87227159300784 821.0073178579995 L 235.70485325300783 836.8398995179995 L 235.70485325300783 861.4683598779995 L 29.17527323125 861.4683598779995 L 29.17527323125 821.0073178579995 M 219.87227159300784 821.0073178579995 L 219.87227159300784 836.8398995179995 L 235.70485325300783 836.8398995179995" stroke-miterlimit="10" stroke-width="1.4659797833333332" stroke-dasharray=""/><g><g><rect fill="yellow" stroke="none" x="53.80373359125002" y="832.6178777419996" width="157.2726593017578" height="17.767674974"/><text fill="black" stroke="none" font-family="sans-serif" font-size="11pt" font-style="normal" font-weight="normal" text-decoration="normal" x="53.80373359125002" y="845.6357782179996" text-anchor="start" dominant-baseline="alphabetic" xml:space="preserve">Irene votes to activate V</text></g><g><g><rect fill="white" stroke="none" x="265.7220790804427" y="838.5990752579995" width="121.26890600417968" height="22.86928462"/></g><text fill="black" stroke="none" font-family="sans-serif" font-size="11pt" font-style="normal" font-weight="normal" text-decoration="normal" x="268.3608426904427" y="854.4316569179995" text-anchor="start" dominant-baseline="alphabetic" xml:space="preserve">3a: V.postFund(I) </text></g><g><path fill="none" stroke="black" paint-order="fill stroke markers" d=" M 408.2123322120573 861.4683598779995 L 258.9846122123412 861.4683598779995" stroke-miterlimit="10" stroke-width="1.4659797833333332" stroke-dasharray=""/><g transform="translate(244.50073195300783,861.4683598779995) translate(-244.50073195300783,-861.4683598779995)"><path fill="black" stroke="none" paint-order="stroke fill markers" d=" M 259.16052978634116 854.1384609613328 L 244.50073195300783 861.4683598779995 L 259.16052978634116 868.7982587946663 Z"/></g></g><g><g><rect fill="white" stroke="none" x="429.84169935902344" y="838.5990752579995" width="117.19589269851562" height="22.86928462"/></g><text fill="black" stroke="none" font-family="sans-serif" font-size="11pt" font-style="normal" font-weight="normal" text-decoration="normal" x="432.48046296902345" y="854.4316569179995" text-anchor="start" dominant-baseline="alphabetic" xml:space="preserve">3b: V.postFund(I)</text></g><g><path fill="none" stroke="black" paint-order="fill stroke markers" d=" M 408.2123322120573 861.4683598779995 L 554.1830789451719 861.4683598779995" stroke-miterlimit="10" stroke-width="1.4659797833333332" stroke-dasharray=""/><g transform="translate(568.6669592045052,861.4683598779995) translate(-568.6669592045052,-861.4683598779995)"><path fill="black" stroke="none" paint-order="stroke fill markers" d=" M 554.007161371172 854.1384609613328 L 568.6669592045052 861.4683598779995 L 554.007161371172 868.7982587946663 Z"/></g></g><path fill="white" stroke="black" paint-order="fill stroke markers" d=" M 279.2925815688542 887.8559959779994 L 521.2995011952605 887.8559959779994 L 537.1320828552605 903.6885776379994 L 537.1320828552605 928.3170379979995 L 279.2925815688542 928.3170379979995 L 279.2925815688542 887.8559959779994 M 521.2995011952605 887.8559959779994 L 521.2995011952605 903.6885776379994 L 537.1320828552605 903.6885776379994" stroke-miterlimit="10" stroke-width="1.4659797833333332" stroke-dasharray=""/><g><text fill="black" stroke="none" font-family="sans-serif" font-size="11pt" font-style="normal" font-weight="normal" text-decoration="normal" x="303.92104192885415" y="912.4844563379995" text-anchor="start" dominant-baseline="alphabetic" xml:space="preserve">Irene exits protocol (see ADR 9)</text></g><path fill="white" stroke="black" paint-order="fill stroke markers" d=" M 244.50073195300783 974.9351951079994 L 235.70485325300783 974.9351951079994 M 30.814509681445312 954.7046740979994 L 219.87227159300784 954.7046740979994 L 235.70485325300783 970.5372557579993 L 235.70485325300783 995.1657161179994 L 30.814509681445312 995.1657161179994 L 30.814509681445312 954.7046740979994 M 219.87227159300784 954.7046740979994 L 219.87227159300784 970.5372557579993 L 235.70485325300783 970.5372557579993" stroke-miterlimit="10" stroke-width="1.4659797833333332" stroke-dasharray=""/><g><g><rect fill="yellow" stroke="none" x="55.442970041445335" y="966.3152339819994" width="155.6334228515625" height="17.767674974"/><text fill="black" stroke="none" font-family="sans-serif" font-size="11pt" font-style="normal" font-weight="normal" text-decoration="normal" x="55.442970041445335" y="979.3331344579994" text-anchor="start" dominant-baseline="alphabetic" xml:space="preserve">Alice votes to activate V</text></g><g><g><rect fill="white" stroke="none" x="265.31764487634115" y="1021.5533522179993" width="122.07777441238281" height="22.86928462"/></g><text fill="black" stroke="none" font-family="sans-serif" font-size="11pt" font-style="normal" font-weight="normal" text-decoration="normal" x="267.95640848634116" y="1037.3859338779992" text-anchor="start" dominant-baseline="alphabetic" xml:space="preserve">3c: V.postFund(A)</text></g><g><path fill="none" stroke="black" paint-order="fill stroke markers" d=" M 244.50073195300783 1044.4226368379993 L 393.72845195272396 1044.4226368379993" stroke-miterlimit="10" stroke-width="1.4659797833333332" stroke-dasharray=""/><g transform="translate(408.2123322120573,1044.4226368379993) translate(-408.2123322120573,-1044.4226368379993)"><path fill="black" stroke="none" paint-order="stroke fill markers" d=" M 393.5525343787239 1037.0927379213326 L 408.2123322120573 1044.4226368379993 L 393.5525343787239 1051.752535754666 Z"/></g></g><g><g><rect fill="white" stroke="none" x="345.13336016699867" y="1070.8102729379993" width="122.90097082351562" height="22.86928462"/></g><text fill="black" stroke="none" font-family="sans-serif" font-size="11pt" font-style="normal" font-weight="normal" text-decoration="normal" x="347.7721237769987" y="1086.6428545979993" text-anchor="start" dominant-baseline="alphabetic" xml:space="preserve">3d: V.postFund(A)</text></g><g><path fill="none" stroke="black" paint-order="fill stroke markers" d=" M 244.50073195300783 1093.6795575579993 L 554.1830789451719 1093.6795575579993" stroke-miterlimit="10" stroke-width="1.4659797833333332" stroke-dasharray=""/><g transform="translate(568.6669592045052,1093.6795575579993) translate(-568.6669592045052,-1093.6795575579993)"><path fill="black" stroke="none" paint-order="stroke fill markers" d=" M 554.007161371172 1086.3496586413326 L 568.6669592045052 1093.6795575579993 L 554.007161371172 1101.009456474666 Z"/></g></g><path fill="white" stroke="black" paint-order="fill stroke markers" d=" M 568.6669592045052 1140.2977146679991 L 577.4628379045052 1140.2977146679991 M 577.4628379045052 1120.0671936579993 L 760.8298496939975 1120.0671936579993 L 776.6624313539975 1135.8997753179992 L 776.6624313539975 1160.5282356779992 L 577.4628379045052 1160.5282356779992 L 577.4628379045052 1120.0671936579993 M 760.8298496939975 1120.0671936579993 L 760.8298496939975 1135.8997753179992 L 776.6624313539975 1135.8997753179992" stroke-miterlimit="10" stroke-width="1.4659797833333332" stroke-dasharray=""/><g><g><rect fill="yellow" stroke="none" x="602.0912982645052" y="1131.677753541999" width="149.9426727294922" height="17.767674974"/><text fill="black" stroke="none" font-family="sans-serif" font-size="11pt" font-style="normal" font-weight="normal" text-decoration="normal" x="602.0912982645052" y="1144.695654017999" text-anchor="start" dominant-baseline="alphabetic" xml:space="preserve">Bob votes to activate V</text></g><g><g><rect fill="white" stroke="none" x="345.13336016699867" y="1186.9158717779992" width="122.90097082351562" height="22.86928462"/></g><text fill="black" stroke="none" font-family="sans-serif" font-size="11pt" font-style="normal" font-weight="normal" text-decoration="normal" x="347.7721237769987" y="1202.7484534379992" text-anchor="start" dominant-baseline="alphabetic" xml:space="preserve">3e: V.postFund(B)</text></g><g><path fill="none" stroke="black" paint-order="fill stroke markers" d=" M 568.6669592045052 1209.7851563979991 L 258.9846122123412 1209.7851563979991" stroke-miterlimit="10" stroke-width="1.4659797833333332" stroke-dasharray=""/><g transform="translate(244.50073195300783,1209.7851563979991) translate(-244.50073195300783,-1209.7851563979991)"><path fill="black" stroke="none" paint-order="stroke fill markers" d=" M 259.16052978634116 1202.4552574813324 L 244.50073195300783 1209.7851563979991 L 259.16052978634116 1217.1150553146658 Z"/></g></g><g><g><rect fill="white" stroke="none" x="429.0292451353906" y="1236.1727924979991" width="118.82080114578125" height="22.86928462"/></g><text fill="black" stroke="none" font-family="sans-serif" font-size="11pt" font-style="normal" font-weight="normal" text-decoration="normal" x="431.66800874539064" y="1252.005374157999" text-anchor="start" dominant-baseline="alphabetic" xml:space="preserve">3f: V.postFund(B)</text></g><g><path fill="none" stroke="black" paint-order="fill stroke markers" d=" M 568.6669592045052 1259.042077117999 L 422.6962124713906 1259.042077117999" stroke-miterlimit="10" stroke-width="1.4659797833333332" stroke-dasharray=""/><g transform="translate(408.2123322120573,1259.042077117999) translate(-408.2123322120573,-1259.042077117999)"><path fill="black" stroke="none" paint-order="stroke fill markers" d=" M 422.87213004539063 1251.7121782013323 L 408.2123322120573 1259.042077117999 L 422.87213004539063 1266.3719760346657 Z"/></g></g><path fill="white" stroke="black" paint-order="fill stroke markers" d=" M 228.66815029300784 1285.429713217999 L 568.6669592045052 1285.429713217999 L 584.4995408645052 1301.262294877999 L 584.4995408645052 1325.890755237999 L 228.66815029300784 1325.890755237999 L 228.66815029300784 1285.429713217999 M 568.6669592045052 1285.429713217999 L 568.6669592045052 1301.262294877999 L 584.4995408645052 1301.262294877999" stroke-miterlimit="10" stroke-width="1.4659797833333332" stroke-dasharray=""/><g><text fill="black" stroke="none" font-family="sans-serif" font-size="11pt" font-style="normal" font-weight="normal" text-decoration="normal" x="322.2316803565885" y="1310.0581735779988" text-anchor="start" dominant-baseline="alphabetic" xml:space="preserve">End of Round 3 - Funded!</text></g></g></g></g></g></g></g></g></g></g></g></g></g></svg>